<?xml version="1.0" encoding="utf-8"?>
<!-- Generator: Adobe Illustrator 27.5.0, SVG Export Plug-In . SVG Version: 6.00 Build 0)  -->
<svg version="1.1" xmlns="http://www.w3.org/2000/svg" xmlns:xlink="http://www.w3.org/1999/xlink" x="0px" y="0px"
	 viewBox="0 0 500 500" style="enable-background:new 0 0 500 500;" xml:space="preserve">
<g id="BACKGROUND">
	<g>
		<rect style="fill:#FFFFFF;" width="500" height="500"/>
	</g>
</g>
<g id="OBJECTS">
	<g>
		<g>
			<path style="fill:green;" d="M417.144,188.926c2.304,2.614,4.744,5.578,7.329,8.284c-1.199-3.597-3.124-7.056-4.666-10.403
				c-2.598-5.639-4.971-11.393-7.197-17.189c-2.283-5.943-4.299-11.984-6.004-18.118c-0.852-3.064-1.656-6.148-2.348-9.253
				c-0.592-2.658-1.497-5.699-1.544-8.504c-1.192-0.354-2.437-0.409-3.478,0.225c-1.558,0.949-2.043,2.959-2.269,4.768
				c-1.553,12.435,2.62,25.048,9.219,35.701C409.381,179.595,413.136,184.381,417.144,188.926z"/>
			<path style="fill:green;" d="M423.012,159.118c1.719,3.057,3.495,6.493,5.473,9.697c-0.371-2.251-1.001-4.468-1.463-6.696
				c-2.262-10.929-2.525-22.144-5.173-33.013c-1.266-5.195-2.59-10.341-3.239-15.659c-0.486-3.981-0.663-7.964-0.578-11.954
				c-0.358,0.007-0.717,0.019-1.067,0.142c-1.721,0.603-2.616,2.467-3.214,4.19c-4.113,11.837-2.664,25.043,1.567,36.839
				C417.366,148.373,420.04,153.837,423.012,159.118z"/>
			<path style="fill:green;" d="M435.81,122.252c1.452,2.581,2.948,5.458,4.594,8.187c-0.045-2.726-0.787-5.29-1.637-7.922
				c-1.988-6.153-3.484-12.454-4.54-18.833c-1.032-6.237-1.653-12.541-1.949-18.855c-0.231-4.925-0.441-10.045-0.049-15.035
				c-0.643-0.16-1.299-0.213-1.936,0.01c-1.571,0.55-2.387,2.251-2.933,3.823c-3.753,10.8-2.431,22.85,1.43,33.612
				C430.659,112.448,433.099,117.433,435.81,122.252z"/>
			<path style="fill:green;" d="M422.708,216.72c3.242,4.466,6.552,8.868,9.571,13.49c0.543,0.831,1.095,1.68,1.643,2.538
				c0.503,0.267,1.006,0.532,1.511,0.768c0.094,0.172,0.165,0.357,0.261,0.528c0.365,0.65,1.105,0.675,1.623,0.356
				c0.101-0.546,0.258-1.084,0.412-1.623c-0.205-0.72-0.409-1.435-0.613-2.151c0.563-0.243,1.123-0.536,1.685-0.806
				c0.946-2.094,2.181-4.089,3.48-5.921c6.319-8.91,14.423-16.609,21.93-24.496c6.882-7.231,13.657-14.737,19.084-23.151
				c-1.171-0.467-2.584-0.472-3.848-0.186c-5.515,1.247-9.493,5.921-12.974,10.377c-5.804,7.431-11.4,15.022-16.89,22.687
				c-2.72,3.798-5.413,7.614-8.093,11.44c-1.524,2.175-3.559,4.516-5.242,6.926c-1.051-3.837-1.986-7.668-2.505-11.706
				c-0.311-2.423-0.49-4.866-0.603-7.314c-0.655-1.735-0.607-3.463-0.122-5.127c0-0.139-0.011-0.278-0.01-0.417
				c0.059-0.023,0.119-0.056,0.178-0.08c1.08-3.133,3.608-6.02,5.739-8.273c7.63-8.069,15.784-15.607,23.518-23.571
				c3.875-3.99,7.637-8.099,11.069-12.481c2.546-3.25,5.182-6.722,7.238-10.423c-1.216-0.587-2.765-0.584-4.126-0.275
				c-5.515,1.247-9.493,5.921-12.974,10.377c-5.804,7.431-11.4,15.022-16.89,22.687c-2.72,3.798-5.413,7.614-8.093,11.44
				c-1.633,2.331-3.842,4.854-5.587,7.447c0.021-0.631,0.026-1.264,0.056-1.894c0.402-8.353,1.617-16.558,3.32-24.691
				c0.485-0.212,0.966-0.469,1.45-0.701c1.138-2.251,2.563-4.353,3.871-6.109c6.975-9.363,15.175-17.817,23.08-26.383
				c6.248-6.771,12.333-13.674,18.086-20.86c-1.247-0.719-2.909-0.749-4.365-0.419c-5.515,1.247-9.493,5.921-12.974,10.377
				c-5.804,7.431-11.4,15.022-16.89,22.687c-2.72,3.798-5.413,7.614-8.093,11.44c-0.813,1.16-1.773,2.371-2.746,3.611
				c0.375-1.562,0.763-3.122,1.167-4.681c2.434-9.391,5.223-18.716,7.813-28.084c0.365-0.22,0.723-0.473,1.085-0.707
				c0.554-1.384,1.146-2.754,1.771-4.104c4.474-9.661,10.75-18.304,17.041-26.839c3.278-4.447,6.59-8.874,9.684-13.453
				c1.542-2.282,3.017-4.606,4.437-6.966c0.373-0.62,0.749-1.266,1.102-1.935c-1.044-0.198-2.199-0.058-3.22,0.305
				c-4.861,1.727-7.96,6.392-10.631,10.806c-4.454,7.36-8.702,14.843-12.846,22.382c-1.965,3.575-3.905,7.165-5.833,10.759
				c2.444-9.652,4.44-19.395,5.446-29.336c0.059-3.228,0.74-6.502,1.563-9.515c1.438-5.263,3.65-10.266,5.601-15.349
				c3.071-7.997,5.154-16.358,6.351-24.841c-0.914,0.03-1.851,0.463-2.596,1.039c-3.164,2.447-4.32,6.632-5.222,10.53
				c-1.503,6.499-2.825,13.039-4.057,19.595c-0.356,1.897-0.693,3.798-1.036,5.698c-0.091-4.867-0.578-9.678-1.449-14.429
				c-1.909-3.568-2.942-7.652-3.643-11.599c-0.828-4.666-1.142-9.4-1.306-14.13c-0.191-5.493-0.18-10.997-0.021-16.491
				c0.08-2.751,0.2-5.499,0.396-8.244c0.084-1.18,0.147-2.379,0.257-3.572c-0.141,0.001-0.279-0.034-0.422-0.007
				c-1.268,0.24-2.09,1.45-2.691,2.592c-4.126,7.847-4.506,17.239-2.79,25.937c0.831,4.21,2.125,8.315,3.646,12.323
				c1.401,3.691,2.788,8.067,4.896,11.441c1.183,7.878,1.196,15.932,0.42,23.96c-0.265-1.138-0.531-2.258-0.714-3.29
				c-0.576-3.254-1.164-6.506-1.774-9.754c-1.232-6.556-2.554-13.095-4.057-19.595c-0.901-3.897-2.057-8.083-5.222-10.53
				c-0.346-0.268-0.741-0.488-1.149-0.674c0.087,0.609,0.174,1.216,0.273,1.809c0.467,2.782,0.88,5.572,1.333,8.356
				c0.889,5.459,1.886,10.906,3.197,16.282c1.309,5.368,3.061,10.527,5.004,15.691c0.603,1.604,1.134,3.287,1.271,5
				c0.421,0.515,0.841,1.034,1.282,1.51c-1.385,10.303-3.929,20.49-6.857,30.112c-0.324,1.063-0.655,2.126-0.987,3.19
				c-0.18-1.402-0.362-2.775-0.455-4.043c-0.312-4.251-0.639-8.5-0.994-12.747c-0.719-8.573-1.556-17.136-2.63-25.672
				c-0.644-5.118-1.577-10.64-5.316-14.195c-0.468-0.446-1.024-0.821-1.605-1.131c0.147,5.073-0.006,10.175,0.273,15.238
				c0.376,6.832,1.139,13.644,2.4,20.371c1.232,6.573,3.237,12.813,5.09,19.217c0.717,2.48,0.882,5.023,0.632,7.527
				c0.264,0.397,0.515,0.812,0.789,1.194c-3.518,11-7.202,22.063-9.958,33.296c-0.248-2.1-0.56-4.186-0.698-6.066
				c-0.342-4.658-0.7-9.316-1.09-13.971c-0.788-9.395-1.705-18.781-2.883-28.136c-0.706-5.61-1.729-11.662-5.826-15.558
				c-0.929-0.884-2.13-1.594-3.361-1.803c0.149,5.156,0.68,10.3,1.609,15.375c1.045,5.706,2.778,11.247,3.911,16.933
				c1.123,5.637,1.72,11.362,2.5,17.052c0.77,5.62,2.191,11.008,3.37,16.539c0.311,1.456,0.563,3.097,0.612,4.743
				c0.175,0.237,0.333,0.501,0.512,0.732c-1.555,7.326-2.621,14.733-2.918,22.251c-0.72-2.16-1.538-4.299-2.106-6.248
				c-1.306-4.485-2.628-8.965-3.981-13.436c-2.73-9.024-5.586-18.012-8.69-26.916c-1.861-5.339-4.124-11.044-8.944-14
				c-0.34-0.209-0.713-0.385-1.089-0.548c0.28,0.97,0.458,1.977,0.681,2.957c0.375,1.654,0.782,3.3,1.182,4.948
				c0.8,3.299,1.636,6.587,2.574,9.851c1.815,6.319,3.886,12.569,6.25,18.704c2.421,6.284,5.315,12.362,8.454,18.316
				c1.814,3.44,3.894,7.222,4.6,11.13c0.328,0.294,0.643,0.625,0.976,0.903c0.083,8.136,1.051,16.703,3.645,24.521
				c-0.76-1.218-1.503-2.409-2.128-3.544c-2.252-4.092-4.519-8.177-6.813-12.245c-4.632-8.212-9.378-16.362-14.347-24.375
				c-2.98-4.805-6.432-9.88-11.78-11.714c-1.453-0.498-3.156-0.629-4.489,0.013c3.474,4.915,7.06,9.745,10.468,14.71
				C409.378,197.755,415.898,207.339,422.708,216.72z"/>
			<path style="fill:green;" d="M445.671,85.937c1.157,1.64,2.368,3.435,3.647,5.176c-0.352-1.376-0.896-2.721-1.4-4.027
				c-1.948-5.048-3.467-10.239-4.683-15.51c-1.245-5.394-2.191-10.852-3.047-16.32c-0.377-2.407-0.739-4.815-1.062-7.23
				c-0.1-0.747-0.22-1.505-0.342-2.268c-0.516-0.077-1.033-0.068-1.513,0.158c-1.168,0.549-1.663,1.925-1.96,3.181
				c-2.041,8.628-0.07,17.817,3.759,25.814C440.924,78.781,443.2,82.433,445.671,85.937z"/>
			<path style="fill:green;" d="M407.04,212.045c4.242,4.336,8.95,8.189,13.852,11.751c2.346,1.705,4.833,3.635,7.395,5.43
				c-0.414-0.649-0.806-1.312-1.226-1.958c-3.925-6.043-7.682-12.192-11.653-18.207c-4.041-6.122-8.16-12.192-12.267-18.27
				c-3.809-5.637-7.427-11.389-11.163-17.07c-0.18,0.116-0.382,0.188-0.541,0.341c-1.313,1.266-1.349,3.333-1.175,5.148
				C391.457,191.686,398.278,203.086,407.04,212.045z"/>
			<path style="fill:green;" d="M474.763,158.958c-6.525,8.468-14.214,15.912-21.845,23.363
				c-3.794,3.704-7.62,7.396-11.222,11.289c-2.299,2.485-4.559,5.105-5.875,8.064c3.959-1.887,7.879-4.353,11.468-6.41
				c5.257-3.014,10.353-6.336,15.037-10.191c9.677-7.962,17.686-18.561,20.218-30.835c0.369-1.786,0.556-3.846-0.614-5.245
				c-0.098-0.117-0.236-0.174-0.346-0.274C479.678,152.355,477.231,155.754,474.763,158.958z"/>
			<path style="fill:green;" d="M458.707,116.6c-2.851,4.421-5.491,8.992-7.672,13.784c-0.185,0.406-0.338,0.823-0.514,1.232
				c2.352-1.686,4.639-3.493,6.791-5.093c4.437-3.299,8.694-6.861,12.52-10.86c7.905-8.261,14.014-18.73,14.98-30.123
				c0.14-1.658,0.087-3.544-1.124-4.686c-0.2-0.188-0.445-0.291-0.678-0.417c-1.295,3.184-3.424,6.161-5.24,8.943
				C471.715,98.663,464.714,107.286,458.707,116.6z"/>
			<path style="fill:green;" d="M483.884,119.887c-0.015-0.018-0.037-0.024-0.052-0.041c-2.036,2.838-4.189,5.59-6.441,8.284
				c-7.335,8.777-15.321,16.977-22.915,25.525c-3.896,4.386-7.766,8.847-11.22,13.595c-0.896,1.232-1.768,2.506-2.555,3.827
				c2.949-1.595,5.841-3.372,8.54-4.919c5.258-3.014,10.353-6.336,15.037-10.191c9.677-7.962,17.686-18.561,20.218-30.835
				C484.866,123.346,485.054,121.287,483.884,119.887z"/>
			<path style="fill:green;" d="M484.753,177.231c-0.238-0.285-0.54-0.48-0.844-0.669c-2.327,4.189-4.996,8.117-8.022,11.877
				c-6.728,8.361-14.47,15.814-21.702,23.725c-4.329,4.736-9.222,10.072-12.265,16.061c2.827-1.546,5.599-3.238,8.191-4.724
				c5.258-3.014,10.353-6.336,15.037-10.191c9.677-7.962,17.686-18.561,20.218-30.835
				C485.735,180.689,485.922,178.631,484.753,177.231z"/>
			<path style="fill:green;" d="M451.769,56.049c0.376,1.988,0.911,3.911,1.505,5.815c0.088-1.747,0.109-3.515,0.229-5.077
				c0.252-3.295,0.493-6.591,0.712-9.889c0.44-6.656,0.788-13.319,0.952-19.988c0.098-3.999,0.021-8.34-2.434-11.499
				c-0.45-0.578-1.035-1.097-1.684-1.428c-0.076,1.321-0.194,2.642-0.257,3.949c-0.127,2.633-0.258,5.267-0.344,7.901
				c-0.169,5.176-0.206,10.36-0.075,15.538C450.497,46.286,450.853,51.214,451.769,56.049z"/>
			<path style="fill:green;" d="M457.991,84.577c-0.728,2.488-1.173,4.942-1.439,7.411c1.648-2.124,3.164-4.435,4.61-6.486
				c2.472-3.503,4.748-7.155,6.601-11.027c3.828-7.997,5.8-17.186,3.759-25.814c-0.297-1.256-0.792-2.632-1.96-3.181
				c-0.115-0.054-0.24-0.052-0.359-0.086c-0.801,8.018-2.658,15.875-5.447,23.498C461.843,74.123,459.557,79.224,457.991,84.577z"/>
		</g>
		<g>
			<path style="fill:green;" d="M343.94,146.382c0.235,2.738,0.64,5.456,1.306,8.119c0.167,0.669,1.251,0.542,1.217-0.165
				c-0.095-1.98-0.161-3.96-0.197-5.938c0.055-0.05,0.129-0.091,0.186-0.14c-0.795-5.742-0.453-11.752-0.08-17.367
				c1.345-20.253,2.973-40.489,4.327-60.742c0.678-10.144,1.25-20.315,0.631-30.477c-0.461-7.563-1.433-15.078-2.926-22.499
				c-2.006-0.073-4.066,0.097-6.156,0.537c-8.478,1.786-15.975,7.754-18.346,16.258c-0.853,3.061-1.354,8.836,1.367,11.306
				c-1.073-1.161-3.667-1.061-5.008-0.264c-2.781,1.653-3.028,5.655-2.836,8.508c0.102,1.514,2.193,9.471,4.729,11.284
				c-2.66-0.145-5.394,2.094-6.423,4.306c-2.275,4.894-0.817,10.889,1.602,15.394c1.275,2.374,2.743,4.549,4.604,6.514
				c1.229,1.298,3.442,2.465,4.365,3.975c1.288,2.107-1.105,1.403-3.019,1.695c-13.649,2.086-1.91,21.567,2.963,27.04
				c4.316,4.847,9.352,9.019,12.928,14.465C340.594,140.352,342.679,143.388,343.94,146.382z"/>
			<path style="fill:green;" d="M351.974,72.684c-0.745,10.162-1.437,20.328-2.147,30.493c-0.691,9.896-1.578,19.809-1.943,29.724
				c-0.175,4.758-0.055,9.43,0.525,14.041c1.132-0.631,2.275-1.147,2.965-1.515c5.184-2.77,10.991-5.446,15.084-9.773
				c3.952-4.178,11.514-14.274,1.611-16.191c0.485-1.02,1.684-1.651,2.559-2.316c1.813-1.377,3.561-2.834,5.107-4.512
				c4.421-4.799,7.758-10.956,7.965-17.571c0.204-6.523-0.12-15.611-8.322-15.79c5.819-5.854,11.251-13.164,10.482-21.954
				c-0.404-4.62-3.805-8.851-8.429-10.015c-1.845-0.465-5.025-0.129-6.159,1.662c2.686-5.647,0.036-13.8-2.707-18.859
				c-4.091-7.545-11.015-12.149-18.928-12.849c1.892,8.249,3.073,16.655,3.414,25.118C353.461,52.495,352.713,62.599,351.974,72.684
				z"/>
		</g>
		<g>
			<path style="fill:green;" d="M438.803,334.521c-0.372,9.534-0.463,19.077-0.374,28.617c0.052,5.548,0.247,11.098,1.179,16.527
				c2.043-2.654,4.437-4.975,6.296-7.835c6.986-10.745,12.656-22.549,17.256-34.511c6.924-18.007,2.901-38.619-3.193-56.294
				c-2.671-7.746-6.684-14.94-10.468-22.176c-1.185-2.266-2.272-4.656-3.071-7.096c-0.319,3.303-0.73,6.599-1.098,9.895
				c-0.587,5.264-1.188,10.526-1.773,15.79C441.448,296.408,439.547,315.445,438.803,334.521z"/>
			<path style="fill:green;" d="M435.458,381.69c0.069,0.816,0.146,1.632,0.25,2.443c0.021,0.398,0.063,0.789,0.064,1.194
				c-0.004-0.061,0.026-0.157,0.074-0.27c0.24,1.652,0.534,3.295,0.939,4.915c0.169,0.676,1.265,0.547,1.23-0.167
				c-0.123-2.57-0.181-5.139-0.202-7.707c0.068-0.094,0.128-0.177,0.193-0.267c-1.589-6.899-1.496-14.252-1.461-21.246
				c0.096-19.359,1.435-38.749,3.198-58.021c0.879-9.609,1.904-19.205,3.001-28.792c0.56-4.891,1.167-9.776,1.787-14.659
				c0.41-3.228,0.795-6.458,1.312-9.668c-0.099-0.417-0.22-0.814-0.431-1.123c-1.729,1.72-2.119,6.394-2.879,8.664
				c-1.78,5.317-4.065,10.491-6.552,15.517c-2.844,5.748-6.226,11.184-8.796,17.078c-2.759,6.327-6.319,12.382-8.758,18.832
				c-5.01,13.247-5.208,29.25,0.76,42.29C423.978,361.172,433.67,370.119,435.458,381.69z"/>
		</g>
		<path style="fill:green;" d="M200.72,94.445c1.974-1.75,4.105-3.351,5.217-4.471c2.696-2.713,4.006-5.011,4.687-8.868
			c0.355-2.008,0.885-4.549,1.197-6.997c-2.283,3.615-4.627,7.196-6.833,10.853c-1.583,2.624-3.001,5.417-3.971,8.332
			C200.89,93.68,200.819,94.062,200.72,94.445z"/>
		<path style="fill:green;" d="M202.023,135.95c1.771-1.915,3.631-3.823,5.116-5.613c2.936-3.538,4.983-7.476,5.814-12.044
			c0.456-2.507,0.705-4.976,1.384-7.451c0.421-1.534,1.175-3.103,1.296-4.707c-4.377,5.664-7.984,11.936-10.485,18.643
			c-1.339,3.592-2.384,7.289-3.106,11.054C202.033,135.871,202.03,135.911,202.023,135.95z"/>
		<path style="fill:green;" d="M206.553,190.107c-2.453,3.67-4.656,7.717-6.492,11.728c-0.264,0.578-0.485,1.178-0.727,1.769
			c2.342-1.747,4.81-3.238,6.12-4.163c4.725-3.338,8.741-7.668,11.222-12.973c1.403-2.999,1.956-6.303,3.209-9.357
			c1.107-2.698,2.956-4.76,4.753-7.008c-0.083-0.005-0.174,0.017-0.258,0.016c-0.011,0.012-0.005,0.026-0.018,0.038
			C217.504,175.896,211.526,182.667,206.553,190.107z"/>
		<g>
			<path style="fill:green;" d="M173.524,100.589c1.536,4.391,2.515,8.325,6.498,11.179c2.327,1.668,4.93,2.625,7.509,3.777
				c0.982,0.439,1.81,0.956,2.619,1.442c-0.247-1.506-0.612-2.984-1.317-4.361c-1.605-3.133-4.189-5.617-6.727-7.996
				c-4.842-4.539-9.436-9.192-13.545-14.354c0.122,1.199,1.048,2.083,1.678,3.105C171.604,95.599,172.666,98.138,173.524,100.589z"
				/>
			<path style="fill:green;" d="M176.75,179.498c3.675,4.665,6.926,9.746,9.37,15.165c0.932,2.065,1.845,4.334,2.575,6.677
				c1.179,0.957,2.344,1.854,3.672,2.623c0.066,3.203,0.178,6.407,0.404,9.614c0.089,1.264,2.1,1.737,2.362,0.32
				c0.479-2.588,0.851-5.18,1.193-7.774c0.2-0.199,0.449-0.38,0.663-0.576c0.297-0.89,0.62-1.757,0.963-2.564
				c1.876-4.416,4.424-8.443,7.165-12.362c5.308-7.589,11.365-14.371,18.361-20.444c-3.253,0.465-7.162,3.29-9.63,4.915
				c-3.726,2.455-6.841,5.372-9.531,8.927c-3.489,4.611-5.477,9.996-7.258,15.443c0.451-4.754,0.776-9.521,0.988-14.305
				c0.118-0.232,0.274-0.44,0.397-0.669c0.841-10.456,5.675-20.614,10.734-29.569c5.357-9.485,11.061-19.784,18.895-27.568
				c0.005-0.085,0.044-0.177,0.044-0.262c-9.708,5.541-18.176,15.622-23.454,25.298c-2.411,4.421-4.532,9.046-6.035,13.862
				c0.2-8.549,0.343-17.098,0.358-25.651c0.001-0.38-0.007-0.76-0.007-1.14c0.381-0.49,0.822-0.989,1.248-1.485
				c0.17-0.844,0.348-1.683,0.525-2.495c0.865-3.978,2.064-7.888,3.589-11.662c2.753-6.813,6.582-13.064,11.314-18.66
				c-5.663,4.369-11.752,10.948-15.113,17.309c-0.655,1.24-1.178,2.488-1.646,3.741c-0.103-9.743-0.353-19.483-0.744-29.218
				c0.073-0.087,0.174-0.171,0.25-0.257c0.531-3.924,2.577-7.933,4.415-10.915c2.901-4.709,5.996-9.39,9.22-13.934
				c0.042-0.871,0.05-1.718-0.045-2.465c-2.23,1.565-3.957,4.307-5.935,6.232c-2.179,2.121-4.279,4.21-6.009,6.731
				c-1.001,1.459-1.723,3.101-2.325,4.797c-0.364-7.075-0.794-14.146-1.348-21.21c-0.257-3.275-0.61-6.54-0.92-9.809
				c1.224-1.179,3.17-3.093,4.114-4.571c1.375-2.154,2.119-4.346,2.444-6.877c0.414-3.219,1.68-6.598,1.915-9.719
				c-4.691,2.567-7.805,9.444-8.989,15.67c-0.206-2.062-0.388-4.125-0.587-6.188c-0.064-0.021-0.141,0.008-0.18-0.075
				c-1.101-2.335-1.124-5.488-1.478-8.034c-0.349-2.514-0.66-5.033-0.93-7.557c-0.485-4.538-0.771-9.085-0.844-13.643
				c-3.224,2.924-2.23,9.904-2.104,13.586c0.123,3.581,0.5,6.604,1.885,9.954c0.484,1.171,1.145,2.392,1.635,3.645
				c0.162,6.245,0.25,12.494,0.385,18.72c0.038,1.723,0.051,3.447,0.087,5.17c-2.894-6.563-9.207-13.48-15.137-13.593
				c4.01,2.973,7.803,6.5,10.592,10.602c1.564,2.301,2.808,4.859,3.529,7.551c0.1,0.375,0.177,0.773,0.262,1.164
				c0.291,0.233,0.603,0.503,0.862,0.666c0.166,8.489,0.351,16.978,0.43,25.468c0.035,3.783,0.012,7.566,0.034,11.348
				c-1.918-3.856-4.754-7.409-7.49-9.976c-2.876-2.699-6.174-4.471-9.728-6.094c-1.837-0.839-3.966-2.225-6.046-2.827
				c4.837,4.847,9.698,9.661,14.636,14.414c3.676,3.539,6.682,8.064,7.337,13.04c0.42,0.177,0.848,0.338,1.318,0.436
				c0.039,15.212-0.056,30.423-0.366,45.634c-0.161-0.861-0.301-1.727-0.503-2.578c-1.279-5.395-2.841-10.729-4.888-15.889
				c-2.463-6.208-5.932-13.037-11.103-17.487c-2.409-2.072-5.048-3.532-7.459-5.305c4.506,8.386,10.688,15.914,15.523,24.085
				c2.81,4.748,5.237,9.797,6.666,15.143c0.867,3.244,1.669,7.257,1.363,10.91c0.083,0.093,0.163,0.194,0.246,0.285
				c-0.202,7.389-0.466,14.766-0.541,22.141c-0.799-2.035-1.713-3.987-2.55-5.727c-3.252-6.76-6.694-12.939-11.978-18.354
				c-6.092-6.243-16.836-13.671-26.201-12.647C161.363,163.863,169.864,170.758,176.75,179.498z"/>
			<path style="fill:green;" d="M227.876,128.518c-6.523,8.095-11.906,17.284-17.038,26.259
				c-4.803,8.398-8.43,16.872-10.269,26.126c2.886-4.337,6.426-8.298,9.746-12.695c4.801-6.357,8.26-13.48,11.226-20.849
				c1.691-4.201,2.46-8.662,3.912-12.932C226.067,132.621,227.372,130.504,227.876,128.518z"/>
			<path style="fill:green;" d="M189.546,70.06c0.387,0.247,0.712,0.526,1.06,0.798c-0.038-0.139-0.053-0.276-0.096-0.415
				c-0.759-2.508-1.98-4.86-3.485-6.999c-2.67-3.797-6.148-6.765-9.492-9.903c0.395,1.812,1.835,3.826,2.544,5.387
				c1.277,2.812,2.068,5.984,4.366,8.19C185.934,68.55,187.87,68.989,189.546,70.06z"/>
			<path style="fill:green;" d="M193.757,36.71c0.226,1.541,0.654,3.208,0.888,4.846c0.013-0.036,0.016-0.068,0.029-0.104
				c0.699-1.923,1.305-3.763,1.829-5.762c0.854-3.262,1.203-7.391-0.104-10.539c-0.844-2.033-2.229-3.803-3.07-5.837
				c-0.646-1.564-0.8-3.379-1.584-4.839c-0.115,0.064-0.186,0.172-0.293,0.244c0.385,4.491,0.736,8.984,1.222,13.466
				C192.981,31.034,193.342,33.876,193.757,36.71z"/>
			<path style="fill:green;" d="M174.579,179.237c-6.257-7.695-14.048-14.365-22.536-19.571c0.866,1.073,2.377,2.083,3.119,3.138
				c1.67,2.374,2.814,5.328,3.843,8.02c2.535,6.628,6.965,12.171,11.979,17.114c4.026,3.97,8.905,6.732,13.434,10.008
				c0.708,0.512,1.356,1.022,1.983,1.526c-0.748-2.124-1.592-4.213-2.606-6.223C181.272,188.253,178.107,183.576,174.579,179.237z"
				/>
			<path style="fill:green;" d="M171.109,143.446c3.192,7.929,8.537,14.66,14.296,20.854c1.863,2.005,3.65,4.385,5.501,6.634
				c0.017-0.878,0.012-1.758-0.077-2.647c-0.274-2.758-0.921-5.478-1.783-8.108c-1.732-5.285-4.397-10.209-7.369-14.89
				c-4.934-7.772-10.165-15.08-13.834-23.47c-0.672-0.56-1.339-1.124-1.942-1.794c-1.151,2.62,0.235,6.497,0.831,9.142
				C167.806,133.939,169.282,138.906,171.109,143.446z"/>
		</g>
		<g>
			<path style="fill:green;" d="M368.908,192.022c-2.827,3.63-5.049,7.722-6.768,11.984c-0.763,1.892-1.392,3.832-1.929,5.799
				c1.611-0.462,3.183-1.296,4.443-2.394c2.535-2.21,4.155-4.65,4.008-8.084c-0.072-1.691-0.282-3.378-0.124-5.079
				C368.607,193.498,368.812,192.764,368.908,192.022z"/>
			<path style="fill:green;" d="M342.61,240.48c1.736,0.415,3.6,0.685,5.603,0.6c-0.372-0.977-0.869-1.91-1.466-2.764
				c-1.371-1.961-3.25-3.511-5.219-4.841c-3.193-2.156-6.552-4.004-9.491-6.47c-0.002,0.003-0.009,0.004-0.012,0.007
				c-0.249,0.348,1.31,3.339,1.504,3.974C335.018,235.861,337.463,239.25,342.61,240.48z"/>
			<path style="fill:green;" d="M366.979,264.804c1.921-0.172,3.318-0.545,5.079-1.454c3.22-1.664,6.288-4.244,6.47-8.113
				c0.122-2.599,0.201-5.312,0.127-7.919c-2.884,3.599-5.809,7.155-8.775,10.69c-1.509,1.799-3.127,3.6-4.173,5.723
				c-0.171,0.347-0.288,0.71-0.419,1.069C365.886,264.836,366.492,264.848,366.979,264.804z"/>
			<path style="fill:green;" d="M353.44,313.083c0.055,0.773,1.285,1.063,1.445,0.195c1.36-7.345,1.717-14.722,1.962-22.178
				c0.136-4.128,0.229-8.255,0.295-12.384c0.46-1.128,0.777-2.341,1.22-3.45c0.766-1.913,1.619-3.78,2.657-5.563
				c0.999-1.715,2.102-3.347,3.32-4.885c1.062-2.345,2.623-4.498,4.282-6.459c3.299-3.898,6.634-7.753,10.03-11.565
				c-0.001-0.02,0-0.042,0-0.062c-1.634,0.068-3.613,1.618-5.054,2.368c-2.174,1.13-4.445,2.451-6.2,4.188
				c-2.743,2.715-4.422,6.846-4.271,10.734c-1.36,1.416-2.619,2.927-3.703,4.562c-0.828,1.249-1.557,2.568-2.222,3.917
				c0.01-1.356,0.037-2.712,0.039-4.068c0.027-15.232-0.406-30.47-1.597-45.659c-0.086-1.092-0.21-2.179-0.307-3.27
				c0.494-1.046,0.65-2.277,0.96-3.381c0.369-1.312,0.783-2.62,1.269-3.893c0.269-0.704,0.58-1.388,0.893-2.071
				c0.182-0.019,0.366-0.076,0.549-0.105c0.62-2.262,1.382-4.488,2.313-6.641c1.908-4.411,4.597-8.375,7.621-12.086
				c-0.001-0.158,0.011-0.315-0.011-0.475c-3.571,1.744-8.614,5.555-10.744,9.003c-1.493,2.416-3.139,7.247-1.3,9.973
				c-0.289,0.613-0.557,1.236-0.818,1.853c-0.459,1.088-0.847,2.193-1.154,3.328c-0.395-4.034-0.772-8.069-1.167-12.103
				c-0.76-1.868-1.245-3.913-1.674-5.85c-0.504-2.276-0.875-4.597-1.063-6.921c-0.317-3.924-0.091-7.786,0.533-11.632
				c-1.258-0.929-1.954,1.952-2.505,3.301c-1.207,2.96-2.742,5.977-2.197,9.25c0.869,5.218,6.28,9.43,6.246,14.777
				c0.149,4.651,0.217,9.309,0.318,13.948c0.164,7.55,0.312,15.102,0.382,22.653c0.008,0.859,0.001,1.717,0.008,2.576
				c-0.285-0.553-0.569-1.107-0.902-1.637c-0.745-1.188-1.607-2.269-2.533-3.29c-0.237-4.881-5.397-11.109-9.792-12.317
				c-0.872-0.239-6.311-1.603-8.066-1.024c3.416,2.569,7.486,4.259,10.89,6.855c1.837,1.401,3.502,3.04,4.689,5.036
				c0.416,0.7,0.801,1.527,1.107,2.384c0.101-0.01,0.196-0.007,0.297-0.02c0.76,1.059,1.472,2.154,2.097,3.29
				c0.755,1.372,1.439,2.798,1.978,4.269c0.085,0.232,0.165,0.467,0.246,0.701c0.075,12.727,0.048,25.454-0.273,38.179
				c-0.073,2.874-0.166,5.744-0.248,8.612c-0.12-0.22-0.222-0.453-0.349-0.667c-0.51-0.861-1.104-1.646-1.724-2.408
				c-0.469-4.937-3.029-10.106-6.702-13.287c-4.198-3.637-9.732-4.884-15.001-5.743c-0.002,0.015,0.001,0.032-0.001,0.047
				c3.88,3.853,7.931,7.523,12.323,10.793c2.224,1.656,4.573,3.229,6.313,5.424c0.706,0.891,1.398,2.028,1.831,3.233
				c0.503,0.832,1.014,1.662,1.448,2.524c0.593,1.179,1.063,2.411,1.38,3.692c0.164,0.66,0.245,1.377,0.37,2.078
				C353.137,305.515,353.172,309.296,353.44,313.083z"/>
			<path style="fill:green;" d="M354.218,200.863c0.02-0.052,0.03-0.096,0.051-0.148c1.184-3.003,3.027-6.191,3.179-9.454
				c0.109-2.333-0.346-4.676-1.639-6.656c-0.755-1.157-1.861-2.058-2.636-3.193c-0.492-0.719-0.663-1.746-1.142-2.412
				c-0.018-0.026-0.034-0.029-0.052-0.053c-0.317,3.635-0.29,7.324,0.051,10.934c0.219,2.319,0.556,4.62,1.058,6.895
				C353.394,198.162,353.807,199.513,354.218,200.863z"/>
			<path style="fill:green;" d="M339.669,290.783c2.799,1.51,5.858,1.284,8.734,2.051c-0.602-1.174-1.396-2.251-2.308-3.2
				c-1.87-1.947-4.11-3.471-6.221-5.136c-3.715-2.929-7.207-6.15-10.379-9.662c0.143,2.298,1.706,5.188,2.503,7.124
				C333.69,286.073,335.741,288.664,339.669,290.783z"/>
		</g>
		<g>
			<path style="fill:green;" d="M90.92,242.118c-2.982-5.573-7.107-10.314-12.086-14.197c-2.834-2.21-6.768-5.988-10.314-6.753
				c-0.54,3.165,2.628,7.574,3.694,10.495c1.698,4.657,3.058,9.461,5.757,13.664c4.006,6.239,9.824,11.47,15.843,15.755
				c2.229,1.586,6.166,3.996,8.451,5.959c-1.279-2.702-1.927-6.493-2.906-8.695C96.882,252.777,93.797,247.494,90.92,242.118z"/>
			<path style="fill:green;" d="M131.055,289.793c-2.153-4.297-4.394-9.979-8.012-13.283c-2.413-2.204-14.01-7.592-17.97-5.918
				c0.04-0.183,0.084-0.365,0.124-0.548c1.716-0.214,3.441-1.44,5.679-1.794c3.812-0.604,7.78-0.871,11.58-1.704
				c6.737-1.478,12.304-4.244,17.139-9.206c2.678-2.748,4.3-6.216,6.852-9.055c1.775-1.974,4.474-3.296,5.981-5.315
				c-1.538-1.404-5.493-0.638-7.516-0.538c-5.302,0.26-10.466,1.581-15.15,4.142c-6.341,3.467-11.987,8.807-17.037,13.902
				c-1.852,1.868-5.01,4.339-6.926,6.908c0.038-0.163,0.073-0.327,0.111-0.49c3.173-5.791,6.109-11.719,9.652-17.349
				c5.262-8.361,10.839-16.35,14.683-25.524c5.309-12.67,6.582-27.272,5.864-40.889c-2.186,0.628-4.58,3.961-6.336,5.581
				c-4.127,3.807-8.637,7.084-12.308,11.381c-6.921,8.101-11.492,19.265-13.448,29.643c-2.093,11.106-3.089,22.089-1.86,33.211
				c0.169,1.529,0.384,3.023,0.591,4.526c-0.15-0.141-0.314-0.286-0.485-0.432c0.173,0.365,0.366,0.693,0.564,1.011
				c0.018,0.136,0.038,0.271,0.056,0.408c-0.024,0.1-0.045,0.202-0.069,0.302c-2.234-4.839-18.72-1.443-21.866-0.527
				c-7.268,2.115-14.764,6.009-16.506,14.005c3.762,0.556,8.913-0.746,12.824-0.881c4.773-0.165,10.338-0.732,14.596-3.11
				c2.903-1.621,8.318-4.981,10.369-6.937c-3.405,14.729-5.489,29.758-6.03,44.874c-0.361,10.074-0.087,20.178,0.894,30.213
				c-1.578-3.409-3.421-6.677-5.505-9.804c-3.879-5.82-8.478-10.892-13.654-15.499c-0.472-0.812-0.935-1.596-1.355-2.315
				c-0.105,0.287-0.222,0.549-0.332,0.828c-0.063-0.054-0.123-0.111-0.187-0.165c0.064-0.115,0.148-0.238,0.206-0.351
				c-0.064-0.026-0.144-0.038-0.208-0.063c3.314-1.557,6.985-4.513,8.949-7.416c2.396-3.54,3.552-8.424,4.437-12.57
				c0.71-3.328,3.341-8.498,2.995-11.718c-4.941,0.087-10.477,6.398-12.671,10.237c-3.578,6.261-4.355,13.657-4.423,20.746
				c-8.029-23.973-39.806-40.167-62.995-27.607c2.142,2.447,5.679,4.349,8.093,6.861c3.314,3.448,6.874,6.735,10.97,9.302
				c8.052,5.047,18.267,6.739,27.361,8.951c2.986,0.727,5.929,1.309,8.816,1.839c-6.337-0.054-13.375,1.571-17.601,4.542
				c-6.032,4.242-17.922,14.783-17.34,23.069c12.025-3.976,25.365-4.304,34.106-14.49c3.051-3.556,7.007-7.545,9.002-10.819
				c0.085,0.08,0.166,0.167,0.25,0.247c-2.328,5.687-5.361,9.867-5.355,16.672c0.004,4.748,1.326,12.081,4.679,15.625
				c4.091-5.552,7.856-10.391,7.502-17.815c-0.197-4.124-1.847-7.987-3.627-11.313c4.055,4.336,7.657,9.162,10.698,14.203
				c2.012,3.335,3.783,6.824,5.374,10.378c0.862,1.925,1.641,3.887,2.342,5.876c0.168,0.477,0.344,1.003,0.534,1.53
				c1.28,8.688,3.308,17.291,7.066,25.246c0.339,0.718,1.445,0.197,1.247-0.526c-3.288-12.064-5.424-24.284-6.348-36.759
				c-1.557-21.002-0.617-42.115,2.993-62.874c0.437-2.515,0.92-5.02,1.439-7.518c0.491,4.126,2.439,7.576,5.906,10.473
				c3.077,2.57,6.428,3.651,10.406,4.115C124.245,287.914,127.84,289.614,131.055,289.793z"/>
		</g>
		<g>
			<path style="fill:green;" d="M240.437,258.795l0.055,0.399c0.018-0.07,0.027-0.142,0.042-0.212
				c3.526,6.649,5.721,13.923,6.847,21.352c1.471,9.704,1.123,19.565,0.062,29.291c-1.07,9.806-2.927,19.495-4.45,29.235
				c-1.517,9.701-2.619,19.482-2.268,29.316c0.043,1.2,0.112,2.395,0.221,3.591c0.007,0.077,0.032,0.141,0.059,0.202
				c0.049,0.632,0.114,1.263,0.199,1.893c0.072,0.533,0.988,0.411,0.944-0.128c-0.043-0.523-0.088-1.047-0.132-1.572
				c0.085-0.095,0.143-0.223,0.134-0.396c-0.15-2.918-0.212-5.83-0.187-8.743c0.127-0.876,0.318-1.74,0.459-2.615
				c0.713-4.411,1.453-8.786,2.54-13.125c1.095-4.368,2.399-8.68,3.613-13.015c1.235-4.409,2.439-8.827,3.65-13.243
				c2.409-8.793,4.694-17.619,7.051-26.425c0.682-2.547,1.366-5.094,2.047-7.642c0.475-1.668,0.926-3.344,1.347-5.027
				c0.041-0.151,0.08-0.303,0.122-0.454c0.565-2.074,1.147-4.148,1.795-6.199c0.309-0.808,0.608-1.62,0.917-2.428
				c0.656-1.714,1.278-3.44,2.021-5.12c0.19-0.429,0.398-0.853,0.598-1.279c0.154-0.185,0.304-0.371,0.444-0.56
				c1.415-1.913,2.812-3.929,4.22-5.859c1.97-2.699,4.734-4.459,7.594-6.082c1.082-0.614,2.215-1.08,3.371-1.491
				c0.03,0.001,0.06,0.001,0.09,0.002c0.287,0.553,0.454,1.172,0.647,1.764c0.251,0.768,0.558,1.525,1.065,2.163
				c0.048,0.061,0.107,0.112,0.16,0.17c-3,1.004-5.162,3.612-6.323,6.549c-0.741,1.874-1.074,3.934-1.179,5.938
				c-0.107,2.043,0.072,4.178,0.832,6.094c0.142,0.359,0.628,0.592,0.934,0.246c0.864-0.975,2.182-1.337,3.204-2.112
				c1.051-0.796,1.811-1.894,2.406-3.057c0.917-1.792,1.543-3.7,1.994-5.652c0.003,0.019,0.007,0.038,0.01,0.057
				c0.063,1.194,0.196,2.385,0.435,3.558c0.319,1.563,0.778,3.096,1.425,4.556c0.476,1.076,1.072,2.057,1.73,3.007
				c0.009,0.025,0.014,0.051,0.023,0.076c0.065,0.171,0.174,0.286,0.296,0.376c0.179,0.248,0.358,0.496,0.545,0.742
				c0.209,0.276,0.691,0.379,0.878,0c0.806-1.632,1.026-3.637,1.126-5.434c0.105-1.878-0.035-3.768-0.388-5.614
				c-0.177-0.927-0.414-1.842-0.705-2.738c0.729,0.658,1.506,1.265,2.33,1.804c3.143,2.06,6.714,3.032,10.455,2.928
				c0.354-0.01,0.609-0.337,0.521-0.684c-1.008-3.944-3.548-7.313-6.635-9.896c-2.555-2.138-6.34-4.153-9.565-2.728
				c-0.123-0.204-0.275-0.388-0.44-0.564c-0.298-0.362-0.646-0.686-1.019-0.968c-0.801-0.606-1.716-1.03-2.675-1.307
				c0.704-0.224,1.411-0.447,2.114-0.687c1.575-0.538,3.117-1.175,4.692-1.736c0.889-0.317,3.147-0.864,3.407-1.87
				c-7.009-2.003-14.967,1.264-20.533,5.591c-2.004,1.558-3.269,3.802-4.568,5.954c-0.649,0.802-1.274,1.626-1.859,2.483
				c-2.046,2.996-3.503,6.487-4.62,9.927c0.185-1.995,0.267-3.998,0.214-5.993c-0.109-4.049-0.597-8.075-1.455-12.033
				c-0.716-3.303-1.728-6.488-2.921-9.624c-0.798-2.52-1.29-5.062-2.217-7.518c-1.357-3.594-3.211-7.441-5.344-10.638
				c-0.775,13.764,5.091,27.454,10.538,39.72l0.147,2.181c-0.167,2.906-0.497,5.804-0.918,8.681
				c-0.401,2.741-0.894,5.456-1.496,8.151c-0.541,1.934-1.077,3.87-1.622,5.801c-2.535,8.974-5.104,17.937-7.636,26.912
				c-2.519,8.925-4.931,17.877-7.259,26.853c-0.786,3.03-1.527,6.077-2.157,9.145c0.302-3.667,0.708-7.326,1.17-10.974
				c1.249-9.856,2.986-19.645,4.21-29.504c1.219-9.825,1.863-19.816,0.81-29.688c-0.849-7.96-2.948-15.794-6.498-22.984
				c-0.512-1.036-1.066-2.055-1.641-3.064c-0.099-0.5-0.24-0.996-0.388-1.48c-2.151-7.035-5.619-13.664-10.171-19.442
				c-2.056-2.609-4.346-5.06-7.02-7.03c-3.982-2.934-8.678-4.71-13.307-6.45c-2.137-0.804-4.32-1.617-6.602-1.7
				c2.644,2.816,5.289,5.632,7.933,8.449c1.236,1.316,2.473,2.633,3.781,3.878c1.936,1.842,4.018,3.513,6.142,5.136
				c-1.668-0.269-3.364-0.226-4.934,0.522c-0.34,0.162-0.681,0.373-1.015,0.605c-0.126-0.024-0.265-0.01-0.406,0.069
				c-0.55,0.309-1.108,0.601-1.665,0.894c-1.006,0.289-1.964,0.738-2.795,1.385c-0.369,0.288-0.712,0.617-1.005,0.983
				c-0.162,0.178-0.3,0.372-0.42,0.577c-3.248-1.388-7.01,0.683-9.537,2.86c-3.049,2.627-5.54,6.033-6.491,9.991
				c-0.084,0.348,0.176,0.671,0.531,0.676c3.742,0.049,7.299-0.975,10.411-3.079c0.815-0.551,1.584-1.169,2.303-1.838
				c-0.279,0.901-0.502,1.818-0.666,2.748c-0.325,1.852-0.439,3.743-0.306,5.619c0.127,1.795,0.375,3.797,1.205,5.417
				c0.193,0.376,0.672,0.267,0.878-0.013c0.183-0.249,0.358-0.499,0.534-0.75c0.121-0.092,0.229-0.208,0.291-0.38
				c0.009-0.025,0.013-0.052,0.022-0.077c0.645-0.96,1.226-1.949,1.687-3.032c0.625-1.469,1.063-3.008,1.359-4.576
				c0.222-1.176,0.338-2.368,0.383-3.563c0.003-0.019,0.006-0.038,0.009-0.057c0.479,1.945,1.133,3.844,2.076,5.623
				c0.612,1.155,1.388,2.241,2.45,3.022c1.034,0.76,2.356,1.103,3.235,2.065c0.311,0.341,0.793,0.101,0.93-0.26
				c0.732-1.926,0.88-4.064,0.743-6.105c-0.134-2.002-0.497-4.058-1.265-5.92c-1.204-2.921-3.402-5.496-6.417-6.457
				c0.051-0.058,0.109-0.11,0.157-0.172c0.497-0.645,0.794-1.407,1.033-2.178c0.153-0.493,0.303-0.996,0.503-1.473
				c0.129-0.108,0.263-0.21,0.396-0.311c0.058-0.002,0.115-0.006,0.173-0.007c-0.02-0.027-0.032-0.06-0.051-0.087
				c0.394-0.289,0.809-0.548,1.257-0.762c1.88-0.897,4.058-1.138,6.087-0.688c2.184,1.636,4.387,3.252,6.504,4.97
				c0.377,0.306,0.746,0.623,1.118,0.938c3.984,3.726,7.358,8.073,9.997,12.879C240.251,258.423,240.339,258.611,240.437,258.795z"
				/>
		</g>
		<g>
			<path style="fill:green;" d="M377.03,338.9c0.005-0.004,0.014-0.001,0.02-0.004c0.005-0.002,0.008-0.006,0.013-0.008
				C377.052,338.892,377.049,338.894,377.03,338.9z"/>
			<path style="fill:green;" d="M377.083,338.877c-0.007,0.002-0.012,0.009-0.02,0.011
				C377.103,338.874,377.118,338.868,377.083,338.877z"/>
			<path style="fill:green;" d="M365.417,346.634c0.004,0.001,0.008,0.003,0.012,0.005c0.002,0-0.044-0.02-0.062-0.025
				c0.004,0.002,0.004,0.002,0.008,0.003C365.389,346.622,365.404,346.629,365.417,346.634z"/>
			<path style="fill:green;" d="M382.676,339.109c0.006-0.003,0.012-0.005,0.018-0.008c0.003-0.003,0.007-0.005,0.01-0.008
				C382.695,339.099,382.685,339.104,382.676,339.109z"/>
			<polygon style="fill:green;" points="382.698,339.099 382.694,339.101 382.686,339.107 382.69,339.106 			"/>
			<path style="fill:green;" d="M405.426,346.409c-0.019-0.277-0.055-0.551-0.122-0.808c-0.541-2.072-2.515-3.429-4.517-3.863
				c-1.286-0.279-2.65-0.286-3.975-0.091c-0.856-0.012-1.718,0.076-2.522,0.206c-0.983,0.159-2.034,0.403-3.034,0.765
				c-0.064,0.007-0.128,0.014-0.189,0.034c-0.042,0.014-0.068,0.047-0.104,0.066c-0.224,0.088-0.436,0.196-0.651,0.298
				c-0.102-0.022-0.204-0.037-0.311-0.045c0.001,0,0.001-0.001,0.002-0.001c0.05-0.025,0.105-0.047,0.153-0.076
				c0.103-0.062,0.214-0.169,0.268-0.276c0.074-0.148,0.091-0.296,0.025-0.451c-0.055-0.131-0.178-0.27-0.328-0.293
				c-0.134-0.02-0.186-0.027-0.319-0.002c-0.023,0.005-0.047,0.009-0.07,0.015c-0.09,0.024-0.178,0.08-0.26,0.124
				c-0.104,0.055-0.207,0.111-0.311,0.166c-0.204,0.108-0.408,0.217-0.612,0.326c-0.166,0.088-0.256,0.282-0.256,0.471
				c-0.177,0.003-0.355,0.006-0.532,0.009c0.171-0.136,0.334-0.28,0.488-0.435c0.02-0.007,0.042-0.011,0.061-0.018
				c0.214-0.081,0.426-0.172,0.599-0.325c0.038-0.033,0.074-0.069,0.108-0.106c0.123-0.156,0.143-0.183,0.06-0.082
				c0.044-0.05,0.083-0.103,0.118-0.159c0.155-0.241,0.069-0.66-0.206-0.784c-0.006-0.003-0.012-0.005-0.017-0.007
				c-0.014-0.046-0.002-0.096-0.026-0.143c-0.078-0.15-0.281-0.277-0.453-0.26c-0.197,0.019-0.34,0.078-0.48,0.222
				c-0.021,0.022-0.038,0.046-0.058,0.068c-0.026,0.004-0.051,0.006-0.077,0.01c-0.172,0.033-0.346,0.094-0.519,0.152
				c0.047-0.109,0.092-0.217,0.121-0.333c0.025-0.101,0.037-0.2,0.028-0.302c-0.007-0.074-0.034-0.13-0.049-0.19
				c0.002-0.023,0.017-0.04,0.017-0.064c0-0.204-0.111-0.406-0.291-0.507c-0.205-0.115-0.448-0.148-0.677-0.089
				c-0.143,0.037-0.282,0.11-0.412,0.18c-0.098,0.052-0.186,0.116-0.278,0.174c0.008-0.026,0.018-0.052,0.026-0.078
				c0.052-0.173,0.116-0.338,0.065-0.523c-0.062-0.224-0.241-0.388-0.469-0.418c-0.359-0.048-0.581,0.212-0.73,0.5
				c-0.185,0.042-0.355,0.12-0.498,0.25c-0.052,0.048-0.103,0.098-0.153,0.148c-0.016-0.184-0.047-0.366-0.144-0.522
				c-0.073-0.118-0.182-0.194-0.305-0.241c-0.24-0.178-0.566-0.243-0.829-0.068c-0.029,0.02-0.056,0.043-0.084,0.064
				c0.058-0.025,0.116-0.049,0.175-0.074c-0.066,0.019-0.124,0.051-0.183,0.08c-0.049,0.038-0.1,0.075-0.149,0.114
				c0.048-0.037,0.097-0.074,0.145-0.112c-0.115,0.057-0.222,0.128-0.306,0.23c-0.057,0.07-0.11,0.144-0.165,0.217
				c-0.038-0.091-0.085-0.179-0.141-0.258c-0.12-0.169-0.33-0.237-0.514-0.19c-0.027-0.115-0.055-0.23-0.078-0.346
				c-0.038-0.194-0.11-0.362-0.171-0.548c-0.071-0.217-0.118-0.443-0.284-0.611c-0.135-0.136-0.374-0.14-0.509,0
				c-0.159,0.165-0.218,0.39-0.257,0.611c-0.023,0.131-0.053,0.256-0.076,0.383c-0.15-0.331-0.319-0.651-0.559-0.956
				c-0.127-0.161-0.441-0.074-0.474,0.125c-0.084,0.5-0.028,1.001,0.101,1.486c-0.064-0.02-0.125-0.055-0.194-0.046
				c-0.072,0.01-0.131,0.04-0.189,0.071c-0.089-0.137-0.176-0.276-0.265-0.413c-0.101-0.156-0.237-0.294-0.31-0.402
				c-0.078-0.114-0.146-0.215-0.259-0.299c-0.066-0.049-0.133-0.095-0.201-0.14c-0.24-0.16-0.489,0.06-0.517,0.297
				c-0.023,0.195-0.013,0.359,0.048,0.544c-0.112-0.027-0.225-0.023-0.317,0.032c-0.087,0.03-0.168,0.071-0.235,0.137
				c-0.026,0.035-0.032,0.043-0.048,0.064c-0.198-0.215-0.421-0.433-0.712-0.476c-0.182-0.027-0.331,0.044-0.396,0.225
				c-0.128,0.358,0.047,0.736,0.212,1.056c-0.124-0.33-0.576-0.424-0.82-0.179c-0.016-0.013-0.03-0.027-0.046-0.04
				c-0.04-0.031-0.082-0.059-0.124-0.088c-0.01-0.007-0.01-0.006-0.016-0.011c0.002,0,0.001-0.002-0.011-0.014
				c-0.069-0.067-0.137-0.141-0.221-0.19c-0.074-0.043-0.166-0.072-0.215-0.093c-0.184-0.079-0.477,0.006-0.451,0.259
				c0.02,0.197,0.044,0.363,0.15,0.535c0.084,0.136,0.146,0.278,0.242,0.407c0.079,0.106,0.18,0.188,0.265,0.285
				c-0.014,0.103-0.014,0.207-0.02,0.311c-0.043-0.026-0.09-0.044-0.132-0.071c-0.118-0.076-0.254-0.153-0.357-0.249
				c-0.002-0.002-0.001-0.001-0.004-0.003c-0.028-0.023-0.056-0.045-0.084-0.068c-0.061-0.051-0.122-0.103-0.181-0.156
				c-0.222-0.2-0.443-0.4-0.665-0.599c-0.079-0.071-0.164-0.135-0.25-0.199c-0.004-0.003-0.003-0.002-0.006-0.004
				c-0.002-0.001,0,0-0.002-0.002c-0.05-0.041-0.101-0.086-0.155-0.121c-0.114-0.073-0.147-0.055-0.212-0.062
				c-0.004-0.002-0.002-0.001-0.007-0.003c-0.075-0.034-0.149-0.073-0.23-0.091c-0.123-0.028-0.293,0.037-0.315,0.179
				c-0.012,0.08-0.017,0.15-0.008,0.229c0.002,0.018,0.004,0.035,0.006,0.053c0.003,0.045,0.005,0.047,0.008,0.005
				c0.01-0.073,0.006-0.04-0.013,0.099c-0.001,0.011-0.002,0.023-0.002,0.034c0.003,0.195,0.141,0.44,0.258,0.598
				c0.06,0.081,0.127,0.148,0.19,0.221c-0.01,0.044-0.025,0.088-0.031,0.136c-0.015,0.106-0.011,0.205-0.015,0.307
				c-0.042-0.027-0.084-0.053-0.125-0.082c-0.037-0.029-0.074-0.057-0.111-0.084c-0.022-0.016-0.02-0.015-0.018-0.014
				c-0.007-0.005-0.014-0.011-0.02-0.016c-0.074-0.062-0.149-0.124-0.222-0.188c-0.159-0.141-0.325-0.287-0.535-0.339
				c-0.12-0.03-0.219,0.039-0.262,0.148c-0.063,0.161-0.023,0.334,0.041,0.497c-0.17-0.07-0.407-0.08-0.534,0.079
				c-0.01,0.013-0.014,0.027-0.024,0.04c-0.011-0.009-0.022-0.02-0.033-0.029c-0.069-0.056-0.131-0.098-0.212-0.133
				c-0.02-0.008-0.021-0.008-0.031-0.012c0.002-0.003-0.004-0.01-0.03-0.03c-0.099-0.075-0.217-0.085-0.337-0.096
				c-0.219-0.021-0.387,0.198-0.396,0.396c-0.005,0.129,0.023,0.234,0.084,0.35c0.01,0.02,0.012,0.022,0.014,0.026
				c0.004,0.009,0.006,0.017,0.018,0.045c0.024,0.056,0.042,0.095,0.076,0.144c0.112,0.161,0.24,0.305,0.382,0.439
				c0.054,0.051,0.122,0.087,0.179,0.136c0.022,0.024,0.046,0.05,0.069,0.072c0.005,0.035,0.009,0.07,0.014,0.105
				c0.018,0.128,0.049,0.251,0.089,0.374c0.038,0.118,0.102,0.231,0.149,0.351c-0.209-0.039-0.415-0.088-0.615-0.16
				c-0.053-0.143-0.101-0.287-0.155-0.429c-0.067-0.178-0.155-0.34-0.244-0.507c-0.053-0.1-0.136-0.181-0.195-0.274
				c0.001-0.002,0-0.009-0.014-0.043c-0.039-0.096-0.128-0.228-0.196-0.292c-0.026-0.02-0.051-0.04-0.077-0.061
				c0.011,0.019,0.022,0.038,0.033,0.058c-0.012-0.055-0.16-0.223-0.184-0.248c-0.06-0.062-0.136-0.117-0.216-0.153
				c-0.249-0.114-0.473-0.052-0.636,0.167c-0.094,0.126-0.115,0.269-0.13,0.416c-0.085-0.035-0.172-0.058-0.263-0.053
				c-0.091,0.005-0.206,0.048-0.245,0.141c-0.045,0.106-0.083,0.186-0.069,0.306c0.008,0.066,0.04,0.127,0.066,0.191
				c-0.144-0.121-0.308-0.212-0.526-0.216c-0.251-0.005-0.436,0.173-0.517,0.394c-0.111,0.302,0.047,0.646,0.232,0.877
				c0.1,0.126,0.207,0.247,0.319,0.361c0.013,0.013,0.029,0.023,0.042,0.036c-0.009,0.033-0.009,0.069-0.014,0.103
				c-0.024-0.015-0.049-0.028-0.072-0.042c-0.029-0.018-0.057-0.037-0.085-0.056c-0.007-0.005-0.021-0.015-0.034-0.024
				c-0.042-0.034-0.084-0.068-0.128-0.099c-0.021-0.016-0.043-0.033-0.065-0.047c-0.023-0.015-0.071-0.036-0.117-0.055
				c-0.018-0.008-0.054-0.024-0.064-0.028c-0.094-0.043-0.194-0.088-0.298-0.102c-0.198-0.028-0.359-0.019-0.522,0.107
				c-0.151,0.116-0.231,0.279-0.236,0.47c-0.006,0.225,0.074,0.422,0.192,0.595c-0.021,0.059-0.038,0.119-0.039,0.182
				c-0.212-0.025-0.402,0.011-0.542,0.192c-0.14,0.181-0.138,0.398-0.042,0.599c0.072,0.153,0.227,0.253,0.365,0.343
				c0.12,0.078,0.246,0.134,0.38,0.183c0.069,0.025,0.143,0.028,0.213,0.047c0.037,0.065,0.067,0.133,0.108,0.195
				c-0.152,0.047-0.305,0.085-0.457,0.136c-0.05-0.021-0.1-0.043-0.151-0.063c-0.001,0-0.016-0.006-0.054-0.022
				c-0.004-0.001-0.007-0.004-0.01-0.004c0,0,0.002,0.001,0.002,0.001c-0.003-0.001-0.003-0.001-0.006-0.002
				c-0.063-0.027-0.125-0.044-0.19-0.063c-0.12-0.035-0.233-0.066-0.356-0.053c-0.431-0.128-0.865-0.245-1.315-0.32
				c-1.073-0.181-2.167-0.272-3.254-0.186c-1.883,0.149-3.765,0.638-5.25,1.845c-1.631,1.325-2.449,3.242-2.886,5.253
				c-0.232,1.064-0.303,2.129-0.14,3.153c-1.098,1.509-1.934,3.158-2.316,4.914c-1.153,5.307,4.814,6.372,8.767,4.625
				c2.817-1.245,4.851-3.657,6.478-6.318c-0.44,3.388-0.254,6.953,1.301,9.818c2.591,4.773,7.807,1.683,9.66-2.22
				c0.325-0.684,0.56-1.393,0.735-2.116c0.415,0.779,0.871,1.532,1.375,2.247c-0.038,7.366-0.886,14.733-2.216,22.007
				c-1.12-4.628-5.326-7.985-9.69-9.816c-5.319-2.233-11.512-3.035-16.892-0.55c-2.339,1.081-4.56,2.82-5.801,5.117
				c-0.816,1.511-1.797,4.837,0.141,5.974c1.916,1.123,4.252-1.447,5.788-2.232c2.603-1.331,5.592-1.862,8.5-1.783
				c3.005,0.082,5.987,0.802,8.705,2.079c1.025,0.482,1.978,1.059,2.912,1.662c0.65,0.58,1.252,1.21,1.742,1.916
				c1.231,1.774,1.702,3.875,1.884,6.04c-0.255-0.759-0.583-1.493-1-2.177c-1.445-2.366-3.827-4.141-6.507-4.85
				c-2.192-0.58-4.808-0.339-6.314,1.356c-0.436,0.491-0.767,1.137-0.664,1.785c0.133,0.83,0.942,1.405,1.761,1.594
				c0.819,0.189,1.674,0.091,2.514,0.115c2.143,0.063,4.172,0.923,6.141,1.77c0.97,0.417,1.968,0.853,2.701,1.613
				c0.814,0.843,1.193,2.006,1.28,3.184c-0.161,0.643-0.32,1.286-0.486,1.927c-2.061,7.985-4.46,15.872-6.748,23.793
				c-1.05,3.634-2.022,7.257-2.818,10.912c-1.436-4.126-5.35-7.143-9.401-8.844c-5.319-2.233-11.513-3.035-16.892-0.55
				c-2.339,1.081-4.56,2.82-5.801,5.117c-0.816,1.511-1.797,4.838,0.141,5.974c1.916,1.123,4.252-1.447,5.788-2.232
				c2.603-1.331,5.592-1.863,8.5-1.783c2.61,0.071,5.192,0.65,7.609,1.631c0.493,0.308,0.989,0.611,1.48,0.923
				c1.582,1.006,3.245,2.006,4.484,3.439c1.149,1.328,1.673,3.097,2.112,4.765c0.106,0.403,0.169,0.806,0.221,1.21
				c-0.738-1.492-1.805-2.822-3.126-3.835c-2.2-1.687-5.061-2.486-7.816-2.183c-2.254,0.248-4.608,1.415-5.403,3.538
				c-0.23,0.615-0.307,1.337,0.023,1.905c0.422,0.727,1.385,0.971,2.217,0.853c0.832-0.118,1.594-0.518,2.387-0.797
				c2.022-0.713,4.224-0.64,6.367-0.559c1.055,0.04,2.143,0.088,3.1,0.533c1.006,0.467,1.759,1.339,2.266,2.337
				c-0.034,0.426-0.079,0.848-0.105,1.275c-0.558,9.185-0.16,18.646,1.23,27.742c0.141,0.923,1.615,0.685,1.606-0.217
				c-0.043-4.363-0.333-8.711-0.56-13.061c0.004-0.015,0.007-0.03,0.011-0.045c0.416-1.634,1.01-3.173,1.972-4.57
				c0.197-0.286,0.414-0.559,0.633-0.83c1.82-1.274,3.611-2.559,5.652-3.518c2.717-1.277,5.7-1.997,8.705-2.079
				c2.908-0.079,5.897,0.452,8.5,1.783c1.535,0.785,3.872,3.355,5.788,2.232c1.939-1.137,0.958-4.463,0.141-5.974
				c-1.241-2.297-3.462-4.036-5.801-5.117c-5.38-2.486-11.573-1.683-16.892,0.55c-3.702,1.554-7.285,4.209-8.973,7.803
				c0.008-0.775,0.014-1.55,0.042-2.327c0.289-7.987,1.835-15.673,3.831-23.368c0.404-0.456,0.867-0.852,1.421-1.109
				c0.958-0.445,2.045-0.492,3.1-0.532c2.142-0.082,4.345-0.154,6.367,0.559c0.793,0.28,1.554,0.679,2.387,0.797
				c0.832,0.118,1.795-0.126,2.217-0.853c0.33-0.568,0.253-1.29,0.023-1.904c-0.794-2.124-3.149-3.29-5.403-3.538
				c-2.755-0.303-5.617,0.496-7.816,2.183c-0.129,0.099-0.247,0.21-0.371,0.315c0.774-1.313,1.624-2.585,2.6-3.797
				c0.469-0.583,0.981-1.134,1.49-1.686c1.652-1.158,3.301-2.301,5.157-3.174c2.717-1.277,5.7-1.997,8.705-2.079
				c2.908-0.079,5.897,0.452,8.5,1.783c1.535,0.785,3.872,3.355,5.788,2.232c1.939-1.137,0.958-4.463,0.141-5.974
				c-1.241-2.297-3.462-4.036-5.801-5.117c-5.38-2.486-11.573-1.683-16.892,0.55c-2.679,1.125-5.297,2.826-7.181,5.042
				c2.929-10.756,5.652-21.566,6.947-32.66c0.502-4.296,0.737-8.588,0.688-12.874c0.967,1.119,2.055,2.097,3.309,2.799
				c3.618,2.025,6.077-0.644,6.811-3.928c0.432,0.387,0.889,0.749,1.387,1.066c3.545,2.258,9.358,2.158,9.359-2.837
				c0.107,0.051,0.2,0.122,0.309,0.17c3.952,1.747,9.92,0.682,8.767-4.625c-0.526-2.419-1.913-4.632-3.663-6.557
				c0.162-0.002,0.316,0.014,0.479,0.008c2.028-0.071,5.976-0.682,5.319-3.561C410.559,348.743,407.96,347.301,405.426,346.409z
				 M368.023,346.064c-0.017,0.003-0.034,0.008-0.051,0.011c0.01-0.021,0.018-0.043,0.025-0.066
				c0.014,0.013,0.031,0.026,0.047,0.039C368.036,346.053,368.03,346.059,368.023,346.064z M368.941,345.451
				c-0.01-0.031-0.022-0.061-0.034-0.092c0.093-0.046,0.187-0.088,0.273-0.144C369.099,345.292,369.02,345.372,368.941,345.451z
				 M369.392,342.09C369.359,342.027,369.374,342.058,369.392,342.09C369.392,342.09,369.392,342.09,369.392,342.09z
				 M370.166,344.405c0.007-0.038,0.01-0.075,0.012-0.113c0.002-0.016,0.002-0.017,0.007-0.052c0.001-0.004-0.001-0.008,0-0.012
				c0.062,0.009,0.122,0.022,0.185,0.029C370.3,344.304,370.234,344.356,370.166,344.405z M374.364,342.44
				c-0.082-0.043-0.172-0.076-0.275-0.087c-0.044-0.004-0.089-0.009-0.133-0.014c-0.021-0.003-0.024-0.003-0.036-0.005
				c-0.031-0.005-0.062-0.01-0.094-0.015c-0.012-0.136-0.021-0.273-0.034-0.41c0.281,0.15,0.573,0.277,0.873,0.385
				c0.003,0.018,0.005,0.036,0.008,0.054C374.57,342.376,374.468,342.409,374.364,342.44z M375.989,342.022
				c0.003-0.034,0.005-0.069,0.009-0.104c0.045,0.027,0.094,0.049,0.139,0.075C376.088,342.004,376.038,342.012,375.989,342.022z
				 M376.22,340.759c-0.056-0.048-0.113-0.096-0.171-0.143c-0.007-0.106-0.012-0.212-0.032-0.316c-0.01-0.052-0.02-0.108-0.035-0.16
				c-0.017-0.071-0.047-0.133-0.091-0.188c0.019,0.042,0.02,0.039,0.013,0.014c0.002,0.004,0.004,0.009,0.006,0.013
				c0.118,0.226,0.271,0.434,0.431,0.634c0.006,0.092,0.025,0.183,0.033,0.275C376.322,340.845,376.27,340.802,376.22,340.759z
				 M368.978,422.769c0.024-0.087,0.048-0.174,0.072-0.261c0.026,0.015,0.054,0.025,0.082,0.038
				C369.079,422.619,369.031,422.696,368.978,422.769z M378.005,340.531c0.01-0.099,0.016-0.202,0.018-0.306
				c0.04,0.059,0.065,0.127,0.109,0.184c0.08,0.104,0.169,0.201,0.252,0.303c0.001,0.028-0.001,0.056,0.001,0.084
				c0.004,0.058,0.02,0.115,0.025,0.174C378.271,340.827,378.137,340.68,378.005,340.531z M379.701,340.562
				c0.004-0.034,0.008-0.07,0.011-0.104c0.045,0.1,0.087,0.199,0.134,0.298C379.799,340.691,379.747,340.629,379.701,340.562z
				 M385.459,341.894c-0.026,0.021-0.046,0.05-0.068,0.075c-0.014-0.004-0.028-0.008-0.043-0.012
				c0.043-0.034,0.079-0.071,0.11-0.116c0.009-0.004,0.018-0.009,0.027-0.013C385.476,341.85,385.468,341.872,385.459,341.894z"/>
		</g>
		<g>
			<path style="fill:green;" d="M317.036,427.521c-4.999-3.156-10.824-5.077-16.614-6.138c-3.273-0.6-6.664-0.808-9.958-0.241
				c-1.447,0.249-2.855,0.654-4.225,1.18c-0.94,0.361-1.817,0.836-2.69,1.32c-0.093,0.178-0.186,0.355-0.279,0.532
				c-1.074,1.017-2.076,2.109-2.976,3.309c0.719-2.883,1.546-5.736,2.551-8.56c3.312-9.306,8.332-17.893,11.533-27.242
				c0.704-2.056,1.293-4.143,1.762-6.254c0.051,0.007,0.102,0.014,0.153,0.021c0.204-0.026,0.408-0.052,0.612-0.078
				c0.005-0.001,0.011-0.002,0.016-0.004c0.406-0.109,0.761-0.309,1.064-0.599c0.19-0.185,0.331-0.399,0.449-0.627
				c0.766,0.171,1.557,0.281,2.206,0.5c1.689,0.57,3.252,1.385,5.038,1.628c1.694,0.231,3.362,0.13,5.009-0.325
				c1.824-0.503,4.126-1.537,5.808-0.132c0.354,0.295,0.862-0.09,0.633-0.505c-1.729-3.141-4.998-5.26-8.525-5.823
				c-0.304-0.048-0.616-0.062-0.926-0.084c0.111-0.076,0.227-0.144,0.332-0.226c1.633-1.285,2.694-3.288,2.684-5.373
				c-0.001-0.276-0.369-0.328-0.465-0.077c-0.457,1.19-1.92,1.316-2.99,1.577c-0.966,0.235-1.843,0.656-2.638,1.253
				c-0.009,0.007-0.016,0.015-0.025,0.022c0.236-0.863,0.362-1.76,0.369-2.674c0.018-2.507-0.644-5.018-1.933-7.169
				c-1.371-2.287-3.852-3.872-4.891-6.339c-0.209-0.497-0.881-0.373-1.136-0.016c-3.014,4.214-6.521,8.825-6.989,14.162
				c-0.047,0.529-0.058,1.073-0.037,1.62c-0.041-0.064-0.072-0.132-0.116-0.195c-0.57-0.815-1.271-1.488-2.116-2.013
				c-0.935-0.581-2.285-1.158-2.349-2.431c-0.013-0.268-0.379-0.333-0.466-0.072c-0.66,1.979-0.276,4.212,0.875,5.942
				c0.265,0.398,0.59,0.764,0.948,1.095c-0.799-0.053-1.601-0.036-2.376,0.089c-1.035,0.167-2.041,0.483-2.999,0.905
				c0.046-1.404,0.076-2.808,0.072-4.215c-0.016-6.019-0.582-12.009-1.902-17.837c-0.153-0.883-0.317-1.765-0.509-2.644
				c-0.398-1.823-0.716-3.904-1.379-5.738c0.203-0.173,0.386-0.366,0.526-0.603c0.133-0.229,0.212-0.473,0.264-0.725
				c0.784-0.042,1.575-0.148,2.259-0.112c1.78,0.094,3.505,0.459,5.291,0.212c1.693-0.233,3.273-0.78,4.737-1.661
				c1.621-0.976,3.56-2.591,5.558-1.69c0.42,0.189,0.806-0.319,0.474-0.657c-2.511-2.56-6.229-3.721-9.777-3.314
				c-0.306,0.035-0.61,0.106-0.914,0.168c0.086-0.103,0.18-0.2,0.259-0.307c1.227-1.677,1.71-3.891,1.139-5.897
				c-0.075-0.265-0.443-0.216-0.469,0.051c-0.12,1.269-1.495,1.784-2.455,2.323c-0.867,0.487-1.598,1.128-2.204,1.917
				c-0.007,0.009-0.012,0.019-0.018,0.028c-0.005-0.894-0.125-1.792-0.365-2.675c-0.657-2.419-1.971-4.66-3.791-6.384
				c-1.936-1.834-4.752-2.693-6.417-4.789c-0.335-0.422-0.949-0.122-1.098,0.29c-1.769,4.87-3.905,10.255-2.921,15.52
				c0.098,0.522,0.233,1.049,0.4,1.57c-0.056-0.051-0.105-0.108-0.164-0.157c-0.768-0.632-1.625-1.091-2.579-1.37
				c-1.057-0.308-2.512-0.5-2.916-1.709c-0.085-0.254-0.454-0.219-0.468,0.056c-0.104,2.083,0.868,4.131,2.441,5.488
				c0.362,0.312,0.774,0.577,1.207,0.8c-0.783,0.164-1.551,0.396-2.264,0.725c-3.242,1.497-5.816,4.422-6.63,7.913
				c-0.108,0.461,0.486,0.695,0.746,0.315c1.239-1.807,3.735-1.435,5.627-1.445c1.709-0.008,3.343-0.363,4.91-1.043
				c1.654-0.718,2.937-1.925,4.409-2.931c0.42-0.287,0.932-0.536,1.451-0.797c0.04,0.096,0.067,0.195,0.12,0.287
				c0.214,0.362,0.502,0.65,0.863,0.863c0.004,0.002,0.008,0.004,0.012,0.006c0.091,0.05,0.187,0.09,0.286,0.121
				c0.284,0.149,0.589,0.217,0.917,0.205c0.024-0.003,0.048-0.006,0.072-0.01c0.437,1.848,1.156,3.69,1.595,5.503
				c0.575,2.37,1.134,4.767,1.529,7.174c0.833,5.072,0.979,10.219,1.271,15.34c-0.024,0.752-0.047,1.504-0.085,2.256
				c-1.926,1.038-3.57,2.58-4.629,4.511c-0.228,0.415,0.281,0.8,0.634,0.504c1.072-0.898,2.398-0.802,3.691-0.486
				c-0.422,5.206-1.089,10.395-1.846,15.563c-1.369,9.358-2.854,18.704-3.277,28.166c-0.018,0.395-0.022,0.791-0.036,1.186
				c-0.323-1.269-0.715-2.51-1.157-3.685c-0.882-2.349-2.063-4.605-3.428-6.738c0.016-0.203,0.031-0.406,0.047-0.61
				c-0.382-0.7-0.77-1.396-1.217-2.058c-0.897-1.329-1.932-2.562-3.06-3.699c-4.169-4.203-9.649-7.165-15.28-8.89
				c-3.215-0.985-6.566-1.497-9.931-1.349c-2.283,0.101-4.41,0.573-6.519,1.237c-0.07,0.112-0.152,0.221-0.219,0.333
				c1.983,1.372,2.893,3.199,4.179,5.226c1.737,2.738,3.654,5.676,6.098,7.843c3.531,3.131,9.419,5.995,14.299,5.494
				c2.779-0.285,4.802-1.98,7.395-2.57c1.284-0.292,2.593-0.459,3.709-0.469c2.024,3.638,3.414,7.642,4.195,11.783
				c0.428,2.271,0.583,4.563,0.916,6.842c0.005,0.032,0.029,0.048,0.044,0.072c0.267,5.047,0.927,10.07,2.076,15.001
				c1.034,4.438,2.449,8.776,4.313,12.935c0.945,2.109,1.993,4.165,3.241,6.112c1.241,1.936,2.629,3.699,4.059,5.495
				c0.317,0.398,0.993-0.124,0.708-0.546c-1.143-1.693-2.122-3.534-3.08-5.34c-0.961-1.813-1.868-3.667-2.712-5.537
				c-1.655-3.671-2.979-7.508-4.008-11.401c-0.745-2.82-1.326-5.679-1.771-8.559c-0.079-4.089,0.155-8.128,0.937-12.224
				c0.224-1.173,0.467-2.337,0.722-3.498c0.418-0.839,0.879-1.657,1.398-2.44c0.754-1.139,1.615-2.202,2.538-3.213
				c0.92,0.6,1.913,1.42,2.82,2.328c1.88,1.881,2.689,4.392,4.889,6.114c3.863,3.024,10.372,3.736,15.028,2.967
				c3.223-0.532,6.411-1.998,9.339-3.389c1.969-0.936,3.594-1.889,5.678-2.136c-0.147-0.139-0.281-0.29-0.433-0.426
				C319.645,429.303,318.371,428.364,317.036,427.521z M300.905,366.229c0.1,0.129,0.192,0.267,0.287,0.402
				c-0.183-0.236-0.359-0.478-0.541-0.715C300.736,366.02,300.823,366.122,300.905,366.229z M275.663,329.565
				c0.11,0.078,0.221,0.154,0.329,0.235c0.131,0.098,0.258,0.207,0.386,0.311C276.138,329.932,275.903,329.745,275.663,329.565z
				 M276.842,427.893c0.402-14.477,3.263-28.776,4.25-43.208c0.41,0.123,0.813,0.249,1.192,0.353c1.648,0.452,3.317,0.55,5.01,0.316
				c1.786-0.246,3.347-1.064,5.036-1.637c0.481-0.163,1.042-0.266,1.612-0.377c0.013,0.103,0.012,0.206,0.039,0.309
				c0.109,0.406,0.309,0.761,0.599,1.064c0.003,0.003,0.007,0.006,0.01,0.009c0.074,0.072,0.155,0.137,0.243,0.194
				c0.184,0.174,0.404,0.29,0.642,0.374C291.436,400.187,280.512,412.846,276.842,427.893z"/>
			<path style="fill:green;" d="M293.035,411.385c-4.21,2.462-6.641,6.839-8.872,11.092c2.108-1.23,4.68-1.869,6.973-2.171
				c6.557-0.864,13.398,0.951,19.484,3.295c2.723,1.048,5.372,2.326,7.801,3.949c1.173,0.784,2.377,1.668,3.469,2.662
				c-0.001-4.742-1.616-9.954-4.607-13.591C311.554,409.651,300.963,406.75,293.035,411.385z"/>
			<path style="fill:green;" d="M235.22,402.406c2.242-0.761,4.692-1.056,6.962-1.04c6.491,0.044,13.071,2.531,18.525,5.948
				c2.488,1.558,4.819,3.413,6.81,5.574c1.08,1.172,2.192,2.504,3.073,3.941c0.37-4.731,0.608-9.659-1.616-13.929
				c-4.241-8.147-14.749-11.333-23.311-8.486C241.59,395.769,237.777,398.836,235.22,402.406z"/>
		</g>
		<g>
			<path style="fill:green;" d="M278.208,112.614c-0.788,3.829-1.49,7.675-2.107,11.536c-1.278,7.994-2.184,16.046-2.723,24.123
				c-0.379,5.682-0.559,11.387-0.519,17.087c0.169-0.758,0.344-1.513,0.518-2.26c0.531-2.273,1.142-4.525,1.838-6.754
				c2.504-8.022,5.993-15.716,10.347-22.903c3.117-5.144,6.634-10.031,10.546-14.587c-1.468-5.723-3.682-11.247-5.952-16.692
				c-3.465-8.309-6.581-16.659-9.362-25.222c0.513,3.653,0.572,7.414,0.594,11.078c0.026,4.294-0.18,8.593-0.813,12.844
				C279.987,104.815,279.013,108.701,278.208,112.614z"/>
			<path style="fill:green;" d="M279.546,146.259c-1.587,3.837-2.976,7.752-4.116,11.746c-0.565,1.98-1.086,3.973-1.543,5.98
				c-0.357,1.564-0.62,3.154-0.965,4.722c0.025,1.105,0.039,2.21,0.082,3.313c0.181,4.601,0.631,9.228,1.769,13.676
				c0.044-0.052,0.094-0.097,0.133-0.155c4.072-6.173,8.691-11.983,12.471-18.355c3.858-6.504,7.036-13.506,8.828-20.871
				c1.794-7.37,2.225-14.954,0.981-22.448c-0.271-1.63-0.628-3.239-1.033-4.835c-1.5,1.771-2.944,3.589-4.332,5.451
				C286.83,131.18,282.736,138.545,279.546,146.259z"/>
			<path style="fill:green;" d="M271.305,131.917c0.737,2.797,1.299,5.688,1.588,8.598c0.565-5.741,1.304-11.462,2.223-17.141
				c0.65-4.02,1.393-8.025,2.228-12.01c0.843-4.023,1.833-8.022,2.348-12.106c0.51-4.051,0.639-8.142,0.584-12.222
				c-0.049-3.577-0.366-7.188-0.232-10.766c-0.297-0.019-0.587,0.127-0.644,0.491c-2.143,13.61-11.17,24.689-16.556,37.114
				c0.704,0.963,1.384,1.945,2.016,2.969C267.741,121.513,269.907,126.612,271.305,131.917z"/>
			<path style="fill:green;" d="M263.84,170.83c-0.079,0.071-0.113,0.183-0.035,0.31c0.231,0.375,0.472,0.748,0.716,1.121
				c0.065,0.131,0.123,0.264,0.188,0.395c1.254,2.508,2.669,4.851,4.218,7.127c1.014,1.952,2.173,3.846,3.244,5.76
				c0.18,0.321,0.44,0.524,0.73,0.643c-0.055,0.508-0.11,1.014-0.16,1.517c-0.205,2.052-0.306,4.208-0.807,6.21
				c-0.514,2.053-1.208,3.881-1.21,6.025c-0.001,1.89-0.19,5.22,1.752,6.188c0.693,0.345,1.723,0.365,2.272-0.293
				c0.944-1.132,0.722-2.045,0.564-3.393c-0.113-0.971-0.199-1.942-0.228-2.92c-0.062-2.055-0.691-4.048-0.631-6.108
				c0.036-1.236,0.157-2.469,0.246-3.703c-2.436-5.874-2.978-12.43-3.08-18.77c-0.141-8.783,0.183-17.595,0.916-26.371
				c-0.087-1.823-0.214-3.646-0.442-5.453c-1.113-8.827-4.403-17.466-9.408-24.869c-0.332,0.779-0.653,1.562-0.953,2.352
				c-2.694,7.091-4.469,14.601-4.802,22.195c-0.339,7.733,0.928,15.454,3.279,22.812C261.214,164.754,262.438,167.835,263.84,170.83
				z"/>
		</g>
		<g>
			<path style="fill:green;" d="M100.897,430.31c-1.385-0.475-2.737-0.745-4.069-0.857c1.004-0.883,1.929-1.906,2.759-3.112
				c2.705-3.931,3.441-9.206-1.012-12.293c-3.894-2.7-9.895-2.376-14.796-0.861c-0.122-5.128-1.725-10.921-5.523-13.754
				c-4.344-3.24-9.11-0.864-11.977,2.951c-0.879,1.171-1.555,2.374-2.073,3.606c-0.53-1.227-1.216-2.424-2.107-3.586
				c-2.903-3.788-7.692-6.117-12.004-2.836c-3.771,2.869-5.318,8.677-5.391,13.806c-4.915-1.468-10.919-1.734-14.787,1.003
				c-4.423,3.13-3.637,8.397-0.894,12.302c0.841,1.198,1.777,2.211,2.788,3.085c-1.331,0.125-2.681,0.408-4.061,0.896
				c-4.499,1.59-8.195,5.425-6.407,10.54c1.564,4.473,6.609,7.739,11.464,9.393c-2.915,4.221-5.024,9.849-3.616,14.373
				c1.61,5.174,6.863,6.054,11.424,4.652c1.4-0.43,2.653-1.007,3.797-1.7c-0.293,1.305-0.441,2.677-0.404,4.141
				c0.122,4.77,2.627,9.47,8.044,9.35c4.737-0.105,9.402-3.894,12.476-8c3.114,4.077,7.815,7.821,12.553,7.88
				c5.418,0.068,7.878-4.656,7.954-9.427c0.023-1.464-0.138-2.834-0.443-4.136c1.15,0.681,2.408,1.246,3.811,1.662
				c4.575,1.358,9.819,0.428,11.379-4.761c1.364-4.538-0.798-10.145-3.754-14.338c4.839-1.701,9.853-5.015,11.374-9.503
				C109.144,435.656,105.411,431.857,100.897,430.31z M64.722,448.419c-4.447,0-8.052-3.605-8.052-8.052
				c0-4.447,3.605-8.052,8.052-8.052s8.052,3.605,8.052,8.052C72.774,444.814,69.169,448.419,64.722,448.419z"/>
			<circle style="fill:green;" cx="64.722" cy="440.367" r="6.901"/>
		</g>
		<g>
			<path style="fill:green;" d="M473.199,435.95c2.362-1.808,4.588-4.254,5.748-6.904c1-1.875,1.322-3.971,0.47-5.88
				c-0.008-0.022-0.018-0.043-0.026-0.064c-0.017-0.037-0.031-0.075-0.049-0.112c-0.771-1.935-2.488-3.166-4.52-3.761
				c-2.708-1.027-6.017-1.145-8.964-0.719c0.393-2.952,0.236-6.259-0.821-8.954c-0.619-2.026-1.87-3.731-3.815-4.479
				c-0.033-0.015-0.066-0.027-0.099-0.042c-0.027-0.01-0.052-0.022-0.079-0.031c-1.917-0.827-4.006-0.482-5.867,0.537
				c-2.639,1.19-5.061,3.444-6.842,5.828c-1.81-2.365-4.259-4.593-6.913-5.752c-1.87-0.995-3.959-1.315-5.863-0.469
				c-0.035,0.013-0.068,0.029-0.103,0.042c-0.025,0.011-0.049,0.02-0.074,0.032c-1.941,0.77-3.174,2.492-3.77,4.529
				c-1.025,2.707-1.143,6.014-0.716,8.959c-2.952-0.393-6.26-0.236-8.957,0.822c-2.026,0.619-3.729,1.87-4.477,3.815
				c-0.015,0.032-0.026,0.065-0.041,0.097c-0.01,0.027-0.022,0.053-0.032,0.081c-0.827,1.916-0.482,4.004,0.536,5.865
				c1.19,2.639,3.445,5.062,5.829,6.844c-2.362,1.807-4.587,4.253-5.747,6.903c-0.999,1.873-1.321,3.967-0.473,5.875
				c0.012,0.034,0.028,0.066,0.04,0.099c0.012,0.025,0.021,0.051,0.033,0.077c0.771,1.943,2.496,3.178,4.536,3.772
				c2.706,1.022,6.009,1.139,8.952,0.714c-0.393,2.954-0.236,6.264,0.824,8.961c0.62,2.027,1.873,3.731,3.821,4.477
				c0.018,0.008,0.036,0.014,0.054,0.023c0.043,0.016,0.083,0.035,0.126,0.049c1.907,0.819,3.983,0.478,5.836-0.53
				c2.648-1.187,5.078-3.447,6.865-5.838c1.811,2.366,4.262,4.595,6.917,5.753c1.866,0.991,3.949,1.31,5.849,0.47
				c0.054-0.019,0.104-0.043,0.156-0.064c0.007-0.003,0.014-0.006,0.02-0.009c1.95-0.769,3.188-2.498,3.783-4.543
				c1.021-2.705,1.138-6.008,0.713-8.95c2.951,0.392,6.256,0.236,8.952-0.82c2.027-0.618,3.733-1.87,4.481-3.816
				c0.016-0.035,0.028-0.07,0.044-0.104c0.009-0.025,0.02-0.048,0.029-0.073c0.829-1.919,0.483-4.01-0.538-5.873
				C477.835,440.151,475.582,437.73,473.199,435.95z M452.346,432.67c0.059,0.016,0.16,0.066,0.18,0.074
				c0.055,0.023,0.115,0.047,0.171,0.072c0.183,0.084,0.4,0.327,0.497,0.497c0.124,0.214,0.187,0.445,0.188,0.693
				c-0.016,0.122-0.033,0.243-0.049,0.365c-0.065,0.233-0.183,0.435-0.353,0.606c-0.093,0.072-0.185,0.143-0.278,0.215
				c-0.158,0.1-0.328,0.155-0.511,0.163c-0.182,0.041-0.365,0.033-0.548-0.025c-0.179-0.042-0.335-0.124-0.467-0.246
				c-0.15-0.097-0.267-0.225-0.354-0.385c-0.024-0.056-0.047-0.111-0.071-0.167c-0.062-0.107-0.093-0.223-0.094-0.347
				c-0.015-0.11-0.021-0.156-0.023-0.197c0,0.004-0.001,0.008-0.001,0.011c0.001-0.007,0.001-0.015,0.001-0.022
				c0-0.048,0.01-0.112,0.032-0.242c0.028-0.155,0.072-0.305,0.153-0.445c0.085-0.158,0.201-0.284,0.348-0.379
				c0.131-0.12,0.284-0.2,0.46-0.242C451.867,432.605,452.106,432.605,452.346,432.67z M449.888,431.516
				c0.038-0.049,0.076-0.099,0.115-0.149c0.05-0.038,0.099-0.076,0.149-0.115c0.084-0.054,0.175-0.083,0.273-0.087
				c0.065-0.017,0.13-0.017,0.195,0c0.098,0.005,0.189,0.034,0.273,0.087c0.049,0.038,0.099,0.076,0.149,0.115
				c0.012,0.014,0.024,0.028,0.036,0.042c0.045,0.053,0.092,0.105,0.128,0.165c0.087,0.149,0.086,0.217,0.105,0.386
				c0.004,0.032,0.007,0.064,0.011,0.096c0.004,0.097-0.017,0.188-0.061,0.272c-0.017,0.06-0.047,0.112-0.091,0.156
				c-0.031,0.053-0.074,0.095-0.126,0.126c-0.044,0.044-0.096,0.074-0.156,0.091c-0.084,0.044-0.175,0.064-0.272,0.061
				c-0.062-0.008-0.125-0.017-0.187-0.025c-0.056-0.024-0.112-0.047-0.169-0.071c-0.047-0.037-0.095-0.074-0.143-0.11
				c-0.027-0.021-0.054-0.042-0.079-0.064c-0.028-0.021-0.049-0.048-0.065-0.081c-0.026-0.024-0.047-0.052-0.063-0.084
				c-0.04-0.064-0.06-0.128-0.08-0.195c-0.005-0.016-0.01-0.033-0.015-0.049c-0.031-0.098-0.035-0.195-0.013-0.293
				C449.805,431.691,449.834,431.6,449.888,431.516z M445.976,432.396c0.947,0,0.945,1.469,0,1.469
				C445.029,433.865,445.031,432.396,445.976,432.396z M445.747,439.608c-0.987,0-0.985-1.531,0-1.531
				C446.734,438.076,446.733,439.608,445.747,439.608z M448.467,437.276c-0.039,0.121-0.107,0.226-0.202,0.314
				c-0.088,0.095-0.193,0.162-0.314,0.202c-0.116,0.061-0.242,0.089-0.376,0.084c-0.176,0-0.341-0.045-0.493-0.133
				c-0.066-0.051-0.132-0.102-0.198-0.153c-0.121-0.122-0.205-0.266-0.251-0.431c-0.012-0.086-0.023-0.173-0.035-0.259
				c-0.004-0.101,0.03-0.192,0.063-0.283c-0.074,0.019-0.142,0.047-0.229,0.047c-0.294,0-0.513-0.115-0.659-0.287
				c-0.015,0.017-0.019,0.04-0.036,0.056c-0.101,0.109-0.221,0.186-0.36,0.231c-0.133,0.07-0.277,0.102-0.43,0.096
				c-0.202-0.001-0.39-0.051-0.564-0.152c-0.075-0.058-0.151-0.116-0.226-0.175c-0.138-0.139-0.234-0.304-0.287-0.493
				c-0.013-0.099-0.027-0.198-0.04-0.297c-0.006-0.154,0.026-0.297,0.096-0.43c0.045-0.139,0.122-0.258,0.231-0.36
				c0.101-0.109,0.221-0.186,0.36-0.231c0.133-0.07,0.277-0.102,0.43-0.096c0.202,0.001,0.39,0.051,0.564,0.153
				c0.075,0.058,0.151,0.116,0.226,0.175c0.06,0.06,0.108,0.127,0.151,0.196c0.14-0.114,0.312-0.198,0.543-0.198
				c0.687,0,0.958,0.624,0.837,1.14c0.097-0.039,0.196-0.072,0.305-0.068c0.176,0.001,0.341,0.045,0.493,0.133
				c0.066,0.051,0.132,0.102,0.198,0.153c0.121,0.122,0.205,0.266,0.251,0.431c0.012,0.087,0.023,0.173,0.035,0.26
				C448.557,437.034,448.529,437.16,448.467,437.276z M448.079,434.963c-0.095-0.073-0.189-0.146-0.284-0.219
				c-0.174-0.175-0.294-0.381-0.361-0.619c-0.017-0.124-0.033-0.249-0.05-0.373c-0.007-0.193,0.033-0.373,0.121-0.541
				c0.057-0.174,0.153-0.324,0.29-0.452c0.127-0.137,0.278-0.233,0.452-0.29c0.167-0.088,0.347-0.128,0.54-0.121
				c0.253,0.001,0.489,0.065,0.708,0.191c0.095,0.073,0.189,0.146,0.284,0.219c0.174,0.175,0.294,0.381,0.361,0.619
				c0.017,0.124,0.034,0.249,0.05,0.373c0.007,0.193-0.033,0.373-0.121,0.54c-0.057,0.174-0.153,0.324-0.29,0.452
				c-0.127,0.137-0.278,0.234-0.452,0.29c-0.167,0.088-0.347,0.128-0.54,0.121C448.534,435.154,448.298,435.09,448.079,434.963z
				 M450.638,440.427c-0.034,0.105-0.093,0.197-0.176,0.274c-0.077,0.083-0.169,0.142-0.274,0.176
				c-0.102,0.053-0.211,0.078-0.328,0.073c-0.154,0-0.297-0.039-0.43-0.116c-0.057-0.044-0.115-0.089-0.172-0.133
				c-0.105-0.106-0.178-0.232-0.219-0.376c-0.01-0.075-0.02-0.151-0.03-0.226c-0.004-0.117,0.02-0.227,0.073-0.328
				c0.034-0.106,0.093-0.197,0.176-0.274c0.077-0.083,0.169-0.142,0.274-0.176c0.102-0.053,0.211-0.078,0.328-0.073
				c0.154,0.001,0.297,0.039,0.43,0.116c0.058,0.044,0.115,0.089,0.172,0.133c0.105,0.106,0.178,0.232,0.219,0.376
				c0.01,0.076,0.02,0.151,0.03,0.226C450.716,440.216,450.691,440.325,450.638,440.427z M451.565,438.263
				c-0.16,0.159-0.348,0.269-0.565,0.329c-0.114,0.015-0.227,0.031-0.341,0.046c-0.176,0.007-0.341-0.03-0.494-0.11
				c-0.159-0.052-0.296-0.14-0.412-0.265c-0.125-0.116-0.213-0.253-0.265-0.412c-0.08-0.153-0.117-0.317-0.11-0.494
				c0-0.025,0-0.05,0-0.075c0.001-0.231,0.059-0.447,0.175-0.647c0.067-0.086,0.134-0.173,0.2-0.259
				c0.16-0.159,0.348-0.269,0.565-0.329c0.114-0.015,0.227-0.031,0.341-0.046c0.176-0.007,0.341,0.03,0.494,0.11
				c0.159,0.052,0.296,0.14,0.412,0.265c0.125,0.116,0.213,0.253,0.265,0.412c0.08,0.153,0.117,0.317,0.11,0.494
				c0,0.025,0,0.05,0,0.075c-0.001,0.231-0.059,0.447-0.175,0.647C451.699,438.09,451.632,438.176,451.565,438.263z
				 M453.627,438.636c-0.032,0.075-0.064,0.151-0.095,0.226c-0.049,0.064-0.099,0.128-0.148,0.191
				c-0.086,0.092-0.187,0.157-0.304,0.195c-0.074,0.043-0.153,0.064-0.239,0.065c-0.126,0.028-0.251,0.023-0.377-0.017
				c-0.075-0.032-0.151-0.063-0.226-0.095c-0.064-0.049-0.128-0.099-0.191-0.148c-0.092-0.086-0.157-0.187-0.195-0.304
				c-0.043-0.074-0.064-0.153-0.065-0.239c-0.028-0.126-0.022-0.251,0.017-0.377c0.032-0.075,0.064-0.151,0.095-0.226
				c0.049-0.064,0.099-0.128,0.148-0.191c0.086-0.092,0.187-0.157,0.304-0.195c0.074-0.043,0.153-0.064,0.239-0.064
				c0.126-0.028,0.251-0.023,0.377,0.017c0.007,0.002,0.015,0.003,0.022,0.005c0.003,0.001,0.007,0.001,0.01,0.002
				c0.076,0.017,0.105,0.01,0.215,0.09c0.01,0.008,0.02,0.015,0.031,0.023c0.049,0.038,0.099,0.077,0.149,0.115
				c0.043,0.054,0.085,0.109,0.126,0.164c0.028,0.035,0.047,0.075,0.056,0.121c0.029,0.07,0.037,0.07,0.046,0.11
				c0.001,0.003,0.001,0.007,0.002,0.01c0.001,0.007,0.003,0.014,0.005,0.021C453.672,438.301,453.672,438.469,453.627,438.636z
				 M454.694,436.902c-0.041,0.147-0.116,0.275-0.223,0.383c-0.108,0.108-0.236,0.182-0.383,0.223
				c-0.058,0.011-0.115,0.021-0.173,0.032c-0.088,0.016-0.176,0.039-0.265,0.03c-0.024-0.003-0.048-0.005-0.072-0.007
				c-0.11,0-0.213-0.028-0.308-0.083c-0.041-0.032-0.082-0.064-0.123-0.096c-0.06-0.055-0.102-0.121-0.126-0.196
				c-0.038-0.073-0.056-0.151-0.053-0.235c-0.003-0.024-0.005-0.048-0.008-0.072c-0.009-0.089,0.014-0.177,0.03-0.265
				c0.011-0.058,0.021-0.115,0.032-0.173c0.041-0.147,0.116-0.275,0.223-0.383c0.108-0.107,0.236-0.182,0.383-0.223
				c0.298-0.082,0.625,0.004,0.844,0.223C454.689,436.277,454.776,436.604,454.694,436.902z M454.315,435.451
				c-1.078,0-1.076-1.672,0-1.672C455.392,433.779,455.39,435.451,454.315,435.451z"/>
		</g>
		<g>
			<path style="fill:green;" d="M54.038,147.494c-2.909-3.358-6.207-6.388-9.813-8.984c-1.765-1.27-3.605-2.428-5.497-3.499
				c-0.854-0.484-1.742-0.905-2.628-1.328c0.929,1.152,1.701,2.445,2.378,3.767c4.297,8.395,6.168,17.937,11.065,25.996
				c3.556,5.853,8.663,10.755,14.656,14.07c1.914,1.058,3.938,1.973,5.601,3.394c0.059,0.051,0.104,0.114,0.162,0.166
				c-0.549-2.59-1.396-5.14-2.29-7.622C64.324,164.167,60.574,155.038,54.038,147.494z"/>
			<path style="fill:green;" d="M39.929,134.912c2.295,1.289,4.495,2.753,6.584,4.352c7.544,5.776,13.271,13.294,17.334,21.85
				c2.251,4.739,4.259,9.647,6.046,14.579c0.891,2.461,1.665,5.024,2.013,7.616c0.192,0.272,0.404,0.53,0.581,0.814
				c-0.036,8.431,1.195,17.64,5.328,25.007c0.465,0.829,1.798,0.272,1.535-0.647c-1.186-4.156-2.382-8.141-2.936-12.453
				c-0.546-4.246-0.641-8.576-0.436-12.849c0.072-1.488,0.188-2.967,0.327-4.443c-0.282-4.169,0.699-8.45,2.626-12.133
				c2.653-5.069,6.828-9.256,10.778-13.322c4.122-4.243,8.407-8.333,12.841-12.249c8.007-7.073,16.521-13.384,25.509-19.108
				c0.076-0.081,0.134-0.174,0.211-0.254c-4.559-0.691-9.186,0.4-13.63,1.632c-4.746,1.316-9.499,2.826-13.71,5.381
				c-4.497,2.729-8.229,6.567-11.478,10.704c-2.827,3.601-5.316,7.465-7.444,11.518c4.123-14.79,8.85-29.477,9.892-44.897
				c0.021-0.314,0.022-0.626,0.039-0.94c0.379,0.348,0.727,0.729,1.139,1.044c5.938,4.542,14.27,4.607,20.61,8.569
				c0.6-7.071-0.189-14.33-2.426-21.053c1.737,0.24,3.487,0.302,5.229,0.07c7.411-0.987,13.348-6.832,20.633-8.514
				c-4.583-5.433-10.285-10.015-16.633-13.188c1.401-1.06,2.706-2.232,3.776-3.631c4.542-5.938,4.607-14.269,8.569-20.61
				c-7.071-0.6-14.33,0.189-21.053,2.426c0.24-1.736,0.301-3.486,0.069-5.227c-0.987-7.411-6.832-13.348-8.514-20.633
				c-5.433,4.583-10.015,10.285-13.188,16.634c-1.06-1.402-2.232-2.707-3.631-3.777c-5.938-4.542-14.27-4.607-20.61-8.569
				c-0.6,7.071,0.189,14.33,2.426,21.053c-1.737-0.24-3.486-0.301-5.227-0.069c-7.411,0.987-13.348,6.832-20.633,8.514
				c4.583,5.433,10.284,10.014,16.632,13.187c-1.401,1.06-2.706,2.232-3.776,3.631c-4.542,5.938-4.607,14.27-8.569,20.61
				c7.071,0.6,14.33-0.189,21.053-2.426c-0.24,1.737-0.302,3.487-0.069,5.229c0.987,7.411,6.832,13.348,8.514,20.633
				c5.433-4.583,10.015-10.285,13.188-16.633c0.267,0.353,0.541,0.698,0.827,1.034c-0.648,9.344-2.865,18.685-5.512,27.384
				c-4.217,13.858-9.494,27.785-11.479,42.215c-0.402-2.742-0.836-5.479-1.303-8.21c-0.508-2.975-1.063-5.97-2.229-8.754
				c-2.065-4.931-5.907-8.883-9.863-12.479c-3.564-3.24-7.328-6.322-11.603-8.54c-4.275-2.218-9.118-3.541-13.912-3.084
				c0.178,0.143,0.328,0.315,0.496,0.469C36.626,133.059,38.335,134.017,39.929,134.912z M82.713,71.235
				c0-4.447,3.605-8.052,8.052-8.052c4.447,0,8.052,3.605,8.052,8.052c0,4.447-3.605,8.052-8.052,8.052
				C86.317,79.287,82.713,75.682,82.713,71.235z"/>
			<path style="fill:green;" d="M90.441,154.329c-3.815,4.035-7.885,8.164-10.429,13.157c-0.718,1.41-1.243,2.856-1.617,4.325
				c0.366-0.378,0.737-0.749,1.125-1.09c4.641-4.075,10.41-6.58,15.938-9.332c8.674-4.318,17.338-9.75,22.119-18.178
				c3.678-6.483,4.928-14.417,9.532-20.147c-3.821,2.688-7.554,5.503-11.255,8.349C106.805,138.373,98.287,146.032,90.441,154.329z"
				/>
			<path style="fill:green;" d="M97.666,71.235c0-3.812-3.09-6.901-6.901-6.901s-6.901,3.09-6.901,6.901
				c0,3.812,3.09,6.901,6.901,6.901S97.666,75.047,97.666,71.235z"/>
		</g>
		<g>
			<path style="fill:green;" d="M211.864,383.962c-3.822,4.58-7.618,9.182-11.294,13.88c-3.547,4.533-7.001,9.138-10.361,13.811
				c-3.294,4.582-6.277,9.295-8.678,14.408c-2.495,5.311-4.877,10.677-7.329,16.008c-0.548,1.19-1.1,2.385-1.637,3.586
				c5.344-4.204,11.853-7.198,15.745-12.759c0.459-0.656,0.89-1.387,0.896-2.188c0.006-0.801-0.571-1.656-1.371-1.678
				c6.638-4.961,12.288-11.239,16.524-18.361c0.266-0.447,0.535-0.936,0.481-1.453c-0.124-1.186-1.674-1.521-2.866-1.549
				c1.539-1.874,3.078-3.772,4.213-5.916c0.951-1.796,1.6-3.732,2.246-5.659c1.186-3.539,2.371-7.079,3.557-10.618
				c0.131-0.39,0.26-0.821,0.102-1.201C212.036,384.143,211.956,384.044,211.864,383.962z"/>
			<path style="fill:green;" d="M181.55,423.89c2.677-5.044,6.256-9.555,9.613-14.156c6.488-8.892,13.286-17.593,20.532-25.884
				c-0.587-0.304-1.564,0.023-2.217,0.446c-3.086,2.001-6.173,4.003-9.259,6.005c-1.38,0.895-2.822,1.813-4.454,2.015
				c-0.615,0.076-1.243,0.047-1.852,0.162c-0.895,0.169-1.705,0.64-2.445,1.172c-5.105,3.673-7.277,10.062-10.306,15.573
				c-0.245,0.445-0.549,0.928-1.042,1.049c-0.39,0.095-0.804-0.065-1.2,0.003c-0.613,0.105-0.999,0.703-1.297,1.249
				c-2.024,3.709-3.604,7.659-4.697,11.74c-0.98,3.663-1.567,7.417-2.151,11.163c-0.712,4.563-1.424,9.127-2.136,13.69
				c-1.303,3.207-2.523,6.448-3.646,9.721c-0.939,2.737-1.829,5.494-2.392,8.336c-0.152,0.77-0.294,1.566-0.403,2.371
				c-0.639-3.506-0.966-7.066-1.047-10.63c-0.241-10.61,1.796-21.087,4.222-31.367c0.903-3.827,1.843-7.643,2.758-11.464
				c0.054-0.011,0.11-0.008,0.16-0.036c0.157-0.087,0.316-0.17,0.477-0.249c0.152-0.074,0.321-0.132,0.458-0.231
				c0.14-0.102,0.283-0.2,0.428-0.295c0.078-0.051,0.158-0.099,0.235-0.15c0.081-0.054,0.157-0.12,0.234-0.183
				c0.127-0.097,0.255-0.192,0.387-0.284c0.224-0.157,0.399-0.345,0.474-0.616c0.068-0.247,0.037-0.576-0.104-0.794
				c-0.142-0.22-0.353-0.414-0.616-0.474c-0.253-0.058-0.577-0.058-0.795,0.104c-0.226,0.168-0.447,0.342-0.663,0.521
				c0.153-0.523,0.257-1.063,0.339-1.609c1.184-5.108,2.283-10.235,3.144-15.418c0.371-2.237,0.702-4.483,0.997-6.735
				c0.346-1.244,0.727-2.478,1.129-3.689c0.982-2.962,2.188-5.83,3.404-8.702c1.668-3.939,3.198-7.902,4.466-11.962
				c0.333-0.482,0.682-0.951,1.053-1.404c0.588-2.188,1.315-4.348,1.962-6.48c1.409-4.643,2.692-9.356,4.353-13.917
				c1.607-4.412,4.008-8.492,6.218-12.62c4.272-7.979,8.819-15.836,13.776-23.411c-0.513-0.181-1.271,0.197-1.754,0.616
				c-2.286,1.981-4.571,3.961-6.857,5.942c-1.022,0.885-2.092,1.797-3.398,2.147c-0.493,0.132-1.007,0.179-1.49,0.342
				c-0.71,0.239-1.316,0.715-1.857,1.233c-3.739,3.571-4.782,9.021-6.621,13.853c-0.149,0.391-0.341,0.818-0.73,0.973
				c-0.307,0.122-0.662,0.039-0.977,0.138c-0.488,0.155-0.733,0.686-0.914,1.165c-1.226,3.25-2.064,6.646-2.49,10.094
				c-0.382,3.094-0.432,6.218-0.482,9.335c-0.06,3.73-0.12,7.46-0.179,11.191c-0.366,1.09-0.745,2.174-1.151,3.245
				c-2.031,5.36-4.691,10.454-6.768,15.794c0.28-2.934,0.479-5.875,0.583-8.818c0.061,0.016,0.117,0.049,0.182,0.049
				c0.137,0,0.266-0.035,0.384-0.104c0.101-0.077,0.205-0.15,0.31-0.22c0.026-0.017,0.052-0.034,0.078-0.051
				c0.206-0.139,0.241-0.198,0.389-0.398c0.008-0.011,0.016-0.021,0.024-0.032c0.088-0.111,0.178-0.222,0.272-0.328
				c0.054-0.061,0.108-0.12,0.164-0.179c0.107-0.114,0.231-0.262,0.305-0.407c0.036-0.086,0.073-0.173,0.109-0.259
				c0.045-0.144,0.052-0.288,0.019-0.433c0-0.098-0.025-0.189-0.074-0.274c-0.044-0.134-0.118-0.251-0.224-0.349
				c-0.139-0.127-0.3-0.221-0.479-0.279c-0.144-0.045-0.288-0.052-0.433-0.02c-0.144,0.007-0.279,0.049-0.403,0.129
				c-0.098,0.075-0.202,0.142-0.286,0.233c-0.086,0.092-0.16,0.181-0.234,0.29c-0.013,0.019-0.025,0.04-0.038,0.059
				c0.035-2.13,0.031-4.26-0.044-6.39c-0.242-6.914-1.121-13.824-2.734-20.556c-0.056-3.465-0.111-6.929-0.167-10.394
				c-0.05-3.117-0.101-6.241-0.482-9.335c-0.426-3.448-1.263-6.844-2.49-10.094c-0.181-0.479-0.426-1.01-0.914-1.165
				c-0.315-0.1-0.67-0.016-0.976-0.138c-0.388-0.155-0.581-0.582-0.73-0.973c-1.839-4.832-2.882-10.282-6.621-13.853
				c-0.542-0.517-1.147-0.993-1.857-1.233c-0.483-0.163-0.997-0.211-1.49-0.342c-1.306-0.35-2.376-1.262-3.398-2.147
				c-2.286-1.981-4.571-3.961-6.857-5.942c-0.483-0.419-1.242-0.796-1.754-0.616c4.958,7.575,9.505,15.433,13.776,23.411
				c2.21,4.128,4.612,8.208,6.218,12.62c1.661,4.561,2.943,9.274,4.353,13.917c0.647,2.132,1.374,4.292,1.962,6.48
				c0.441,0.538,0.856,1.096,1.241,1.677c0.757,4.107,1.248,8.264,1.529,12.424c-0.152-0.208-0.304-0.415-0.455-0.623
				c-0.127-0.307-0.359-0.549-0.691-0.64c-0.325-0.089-0.652-0.015-0.914,0.188c-0.259,0.2-0.413,0.491-0.413,0.823
				c0,0.353,0.196,0.739,0.519,0.905c0.007,0.003,0.013,0.007,0.02,0.01c0.293,0.293,0.585,0.588,0.878,0.882
				c0.077,0.077,0.153,0.153,0.229,0.23c0.126,0.127,0.272,0.229,0.415,0.335c0.082,0.061,0.163,0.129,0.251,0.18
				c0.094,0.054,0.194,0.077,0.297,0.09c0.013,0.278,0.036,0.556,0.048,0.833c0.435,10.308-0.402,20.64-2.005,30.82
				c-0.601,3.819-1.334,7.608-2.141,11.379c-0.146-3.478-0.482-6.946-1.021-10.385c-0.464-2.959-1.136-5.866-1.947-8.742
				c-0.137-2.817-0.275-5.635-0.412-8.452c-0.152-3.114-0.304-6.234-0.787-9.314c-0.538-3.432-1.486-6.799-2.818-10.007
				c-0.196-0.473-0.459-0.995-0.952-1.134c-0.318-0.09-0.67,0.005-0.98-0.107c-0.393-0.142-0.6-0.563-0.761-0.948
				c-1.996-4.77-3.216-10.182-7.07-13.63c-0.558-0.499-1.179-0.955-1.896-1.171c-0.488-0.147-1.004-0.178-1.5-0.294
				c-1.317-0.307-2.416-1.183-3.466-2.035c-2.349-1.905-4.698-3.81-7.047-5.715c-0.497-0.403-1.267-0.755-1.773-0.558
				c5.202,7.409,10.003,15.114,14.533,22.949c2.344,4.054,4.877,8.053,6.627,12.41c1.809,4.504,3.245,9.173,4.805,13.768
				c0.717,2.11,1.514,4.245,2.173,6.413c0.333,0.381,0.65,0.775,0.956,1.178c0.216,1.276,0.419,2.554,0.616,3.83
				c0.306,1.983,0.547,3.977,0.739,5.975c-0.048-0.063-0.095-0.127-0.143-0.189c-0.048-0.062-0.093-0.12-0.155-0.169
				c-0.123-0.097-0.246-0.194-0.373-0.286c-0.033-0.024-0.065-0.048-0.099-0.07c-0.082-0.035-0.164-0.069-0.246-0.104
				c-0.091-0.012-0.183-0.025-0.274-0.037c-0.201-0.009-0.355,0.068-0.53,0.145c-0.152,0.09-0.273,0.211-0.363,0.362
				c-0.091,0.158-0.137,0.328-0.138,0.51c-0.012,0.273,0.11,0.552,0.301,0.743c0.078,0.078,0.178,0.138,0.269,0.203
				c0.053,0.037,0.105,0.076,0.156,0.115c-0.07-0.054-0.139-0.108-0.209-0.161c0.11,0.086,0.214,0.185,0.334,0.256
				c0.051,0.03,0.104,0.058,0.156,0.088c0.095,0.056,0.188,0.116,0.278,0.179c0.044,0.031,0.087,0.068,0.132,0.096
				c0.045,0.028,0.097,0.048,0.144,0.072c0.047,0.024,0.094,0.049,0.14,0.074c0.026,0.015,0.052,0.03,0.078,0.044
				c0.137,0.076,0.236,0.099,0.392,0.109c0.061-0.008,0.123-0.017,0.184-0.025c0.052-0.013,0.092-0.046,0.137-0.072
				c0.075,0.938,0.141,1.877,0.195,2.816c0.15,2.626,0.295,5.28,0.123,7.906c-1.028,4.394-2.116,8.775-3.187,13.163
				c-2.008,8.227-3.842,16.571-4.586,25.02c-0.268-1.033-0.561-2.055-0.85-3.061c-0.313-1.09-0.636-2.176-0.966-3.26
				c0.072-0.072,0.141-0.147,0.211-0.221c0.184-0.192,0.352-0.386,0.502-0.607c0.12-0.176,0.24-0.352,0.36-0.528
				c0.064-0.094,0.137-0.186,0.189-0.287c0.053-0.102,0.097-0.209,0.146-0.313c0.122-0.263,0.186-0.524,0.106-0.813
				c-0.067-0.245-0.257-0.51-0.485-0.63c-0.245-0.129-0.541-0.194-0.813-0.106c-0.247,0.08-0.516,0.24-0.63,0.485
				c-0.113,0.241-0.217,0.482-0.298,0.735c-0.622-1.951-1.276-3.891-1.973-5.817c-0.24-0.664-0.495-1.325-0.748-1.986
				c-0.678-4.348-1.357-8.696-2.035-13.043c-0.585-3.746-1.171-7.501-2.151-11.164c-1.092-4.081-2.673-8.031-4.697-11.74
				c-0.298-0.546-0.683-1.145-1.297-1.249c-0.396-0.068-0.81,0.093-1.2-0.003c-0.494-0.121-0.798-0.603-1.042-1.049
				c-3.028-5.511-5.201-11.9-10.306-15.573c-0.739-0.532-1.549-1.003-2.444-1.172c-0.609-0.115-1.237-0.086-1.852-0.162
				c-1.632-0.202-3.074-1.12-4.454-2.015c-3.086-2.002-6.173-4.003-9.259-6.005c-0.652-0.423-1.63-0.75-2.217-0.446
				c7.246,8.291,14.045,16.992,20.532,25.884c3.357,4.601,6.936,9.112,9.613,14.156c2.768,5.215,5.105,10.677,7.584,16.032
				c1.138,2.46,2.377,4.939,3.453,7.476c0.151,0.14,0.295,0.287,0.444,0.43c1.326,3.825,2.523,7.696,3.676,11.564
				c0.688,2.307,1.377,4.62,1.874,6.977c0.29,1.375,0.503,2.779,0.659,4.188c-0.077-0.099-0.154-0.197-0.232-0.296
				c-0.186-0.237-0.363-0.483-0.573-0.7c-0.248-0.256-0.513-0.613-0.844-0.754c-0.166-0.071-0.325-0.138-0.509-0.138
				c-0.225,0-0.436,0.081-0.612,0.217c-0.143,0.11-0.241,0.238-0.311,0.404c-0.082,0.195-0.125,0.451-0.051,0.657
				c0.011,0.029,0.021,0.059,0.032,0.088c0.075,0.199,0.153,0.327,0.287,0.485c0.046,0.054,0.095,0.105,0.143,0.157
				c0.108,0.117,0.216,0.234,0.324,0.35c0.21,0.228,0.447,0.426,0.68,0.63c0.268,0.235,0.531,0.501,0.828,0.699
				c0.253,0.168,0.521,0.319,0.781,0.478c0.023,0.014,0.051,0.018,0.076,0.029c0.154,8.78,1.792,17.633,5.976,25.414
				c0.579,1.077,1.268,2.085,1.991,3.068c0.271,0.368,0.833,0.058,0.621-0.363c-1.912-3.797-3.542-7.684-4.719-11.758
				c0.111-0.03,0.217-0.085,0.312-0.166c0.089-0.077,0.179-0.153,0.271-0.227c0.106-0.086,0.187-0.2,0.267-0.313
				c0.144-0.182,0.29-0.362,0.443-0.535c0.213-0.24,0.392-0.508,0.584-0.766c0.134-0.169,0.268-0.337,0.401-0.507
				c0.129-0.165,0.246-0.321,0.307-0.541c0.107-0.385,0.015-0.866-0.29-1.146c-0.501-0.46-1.291-0.418-1.732,0.108
				c-0.225,0.268-0.414,0.562-0.593,0.861c0.083-1.272,0.194-2.541,0.427-3.806c0.471-2.553,1.216-5.05,2.008-7.52
				c1.252-3.908,2.635-7.778,4.111-11.609c0.171-0.165,0.337-0.334,0.511-0.495c1.076-2.537,2.315-5.016,3.453-7.476
				C176.445,434.566,178.782,429.105,181.55,423.89z"/>
			<path style="fill:green;" d="M141.928,410.894c-2.402-5.113-5.384-9.826-8.678-14.408c-3.36-4.673-6.814-9.278-10.361-13.811
				c-3.676-4.698-7.472-9.3-11.294-13.88c-0.092,0.081-0.172,0.18-0.228,0.313c-0.158,0.379-0.029,0.811,0.102,1.201
				c1.186,3.539,2.371,7.079,3.557,10.618c0.645,1.927,1.295,3.863,2.246,5.659c1.135,2.143,2.674,4.041,4.213,5.916
				c-1.192,0.028-2.742,0.363-2.866,1.549c-0.054,0.517,0.215,1.007,0.481,1.453c4.236,7.122,9.886,13.4,16.524,18.361
				c-0.8,0.022-1.378,0.877-1.371,1.678c0.006,0.801,0.437,1.532,0.896,2.188c3.892,5.561,10.401,8.555,15.745,12.759
				c-0.537-1.202-1.09-2.396-1.637-3.586C146.805,421.572,144.422,416.205,141.928,410.894z"/>
			<path style="fill:green;" d="M151.109,371.669c-0.064,0.655,0.224,1.29,0.542,1.867c2.698,4.885,7.759,7.9,11.762,11.802
				c-0.335-1.029-0.683-2.054-1.027-3.075c-1.54-4.572-3.021-9.167-4.599-13.726c-1.519-4.389-3.547-8.502-5.841-12.535
				c-2.34-4.113-4.764-8.179-7.269-12.194c-2.597-4.161-5.299-8.254-8.025-12.331c-0.082,0.059-0.156,0.132-0.213,0.236
				c-0.163,0.296-0.094,0.66-0.021,0.99c0.661,2.997,1.323,5.994,1.984,8.991c0.36,1.631,0.723,3.271,1.343,4.822
				c0.741,1.851,1.835,3.537,2.93,5.203c-0.977-0.081-2.273,0.058-2.478,1.017c-0.089,0.418,0.088,0.842,0.267,1.23
				c2.844,6.192,6.916,11.816,11.912,16.45C151.72,370.365,151.173,371.014,151.109,371.669z"/>
			<path style="fill:green;" d="M208.383,316.789c0.563-3.017,1.126-6.034,1.689-9.051c0.062-0.332,0.119-0.698-0.053-0.989
				c-0.06-0.102-0.137-0.173-0.221-0.229c-2.592,4.164-5.159,8.343-7.618,12.586c-2.373,4.094-4.662,8.237-6.867,12.424
				c-2.162,4.105-4.054,8.282-5.429,12.719c-1.427,4.608-2.757,9.249-4.148,13.869c-0.31,1.032-0.625,2.067-0.925,3.106
				c3.873-4.031,8.833-7.209,11.37-12.18c0.299-0.586,0.567-1.231,0.481-1.883c-0.086-0.653-0.653-1.283-1.308-1.21
				c4.842-4.794,8.728-10.549,11.368-16.83c0.166-0.394,0.329-0.823,0.226-1.238c-0.236-0.952-1.536-1.048-2.51-0.935
				c1.04-1.701,2.078-3.422,2.758-5.296C207.768,320.082,208.077,318.432,208.383,316.789z"/>
			<path style="fill:green;" d="M157.101,328.663c-0.086,0.653,0.182,1.297,0.481,1.883c2.537,4.971,7.497,8.149,11.37,12.18
				c-0.301-1.04-0.615-2.075-0.925-3.106c-1.39-4.62-2.72-9.261-4.148-13.869c-1.374-4.436-3.267-8.613-5.429-12.719
				c-2.205-4.187-4.494-8.33-6.867-12.424c-2.459-4.243-5.027-8.423-7.618-12.586c-0.084,0.056-0.161,0.127-0.221,0.229
				c-0.172,0.291-0.115,0.657-0.053,0.989c0.563,3.017,1.126,6.034,1.689,9.051c0.307,1.642,0.615,3.293,1.185,4.863
				c0.68,1.874,1.718,3.595,2.758,5.296c-0.974-0.113-2.274-0.016-2.51,0.935c-0.103,0.415,0.061,0.844,0.226,1.238
				c2.64,6.281,6.527,12.036,11.368,16.83C157.754,327.379,157.187,328.01,157.101,328.663z"/>
		</g>
		<path style="fill:green;" d="M165.86,471.426c-0.031,0.04-0.063,0.079-0.095,0.119c-0.031,0.039-0.057,0.076-0.089,0.118
			C165.737,471.584,165.799,471.505,165.86,471.426z"/>
	</g>
</g>
</svg>
